<?xml version="1.0" standalone="no"?>
<!DOCTYPE svg PUBLIC "-//W3C//DTD SVG 20010904//EN"
 "http://www.w3.org/TR/2001/REC-SVG-20010904/DTD/svg10.dtd">
<svg version="1.0" xmlns="http://www.w3.org/2000/svg"
 width="690.000000pt" height="754.000000pt" viewBox="0 0 690.000000 754.000000"
 preserveAspectRatio="xMidYMid meet">

<g transform="translate(0.000000,754.000000) scale(0.100000,-0.100000)"
fill="#000000" stroke="none">
<path d="M1340 7522 c0 -19 10 -20 148 -26 81 -4 181 -9 224 -11 53 -3 78 0
81 8 3 9 43 10 166 4 317 -15 700 -22 736 -13 20 4 38 6 41 3 2 -2 0 -170 -6
-373 -23 -773 -26 -949 -19 -964 7 -12 8 -12 9 -1 0 10 3 11 13 2 8 -6 16 -8
20 -5 5 5 258 -14 264 -20 3 -3 -22 -84 -27 -89 -3 -3 -70 2 -149 9 -132 13
-163 13 -150 -1 3 -2 71 -10 152 -17 142 -11 147 -12 141 -32 -4 -12 -7 -22
-8 -23 -1 -1 -35 -7 -76 -13 -41 -7 -156 -25 -255 -41 -99 -17 -274 -45 -390
-64 -115 -19 -220 -37 -232 -40 -20 -5 -24 3 -47 78 -21 69 -25 98 -21 158 6
93 9 101 43 120 23 13 57 15 182 13 l155 -2 -160 11 c-142 11 -160 14 -163 30
-3 14 -9 17 -25 12 -12 -4 -40 -9 -62 -10 -22 -2 -29 -1 -15 2 38 7 48 22 25
36 -11 6 -22 12 -25 13 -10 2 -45 16 -59 22 -7 4 -23 25 -35 46 -23 43 -104
123 -144 145 -87 47 -408 79 -526 52 -90 -20 -156 -93 -156 -171 0 -17 -4 -38
-9 -48 -34 -65 -67 -272 -57 -360 l7 -57 -20 43 c-14 29 -26 42 -40 42 -16 0
-21 9 -27 46 -3 26 -4 73 0 105 l6 59 -53 1 c-119 3 -357 26 -366 35 -3 3 41
2 99 -2 58 -5 157 -9 220 -9 l114 0 18 59 c14 44 15 62 7 72 -6 8 -16 11 -21
8 -6 -4 -5 -10 3 -15 10 -6 10 -9 2 -9 -6 0 -15 5 -18 11 -4 6 -14 8 -22 5 -8
-3 -20 -3 -26 1 -20 12 -47 10 -47 -3 0 -7 -4 -15 -9 -18 -5 -4 -7 3 -4 14 5
20 3 21 -63 15 -38 -4 -75 -8 -81 -11 -16 -4 -17 33 -1 38 15 5 1 28 -18 28
-9 0 -14 -11 -14 -30 l0 -31 -102 2 c-56 1 -104 -3 -105 -8 -2 -5 -35 -7 -74
-5 -48 3 -70 1 -65 -6 4 -6 -2 -8 -14 -5 -11 3 -26 0 -33 -6 -15 -12 -78 -11
-70 2 2 4 -3 10 -12 14 -24 8 -68 -45 -62 -75 2 -12 0 -25 -4 -28 -5 -3 -9
-14 -9 -25 0 -26 30 -37 45 -16 11 15 13 14 23 -9 16 -33 15 -65 0 -63 -28 3
-38 -2 -38 -21 0 -24 27 -37 43 -21 20 20 27 12 27 -35 l0 -46 -60 4 c-57 4
-60 3 -60 -19 0 -21 4 -23 60 -23 52 0 60 -2 60 -19 0 -17 -6 -19 -60 -14
l-60 6 0 -52 0 -53 60 4 c73 4 65 35 80 -312 14 -334 16 -300 -22 -300 -18 0
-40 -5 -48 -11 -11 -8 -3 -9 31 -6 l47 4 6 -45 c11 -81 7 -192 -6 -192 -9 0
-10 -3 -2 -8 6 -4 14 -37 18 -74 6 -67 6 -67 -22 -82 -38 -19 -62 -57 -62 -96
0 -45 15 -67 54 -80 30 -10 34 -15 39 -58 3 -30 1 -57 -8 -74 -11 -23 -11 -28
-1 -28 14 0 25 -132 27 -330 2 -88 -2 -108 -49 -260 -28 -91 -72 -226 -97
-300 l-45 -134 0 -433 0 -432 41 14 c59 21 81 19 167 -16 93 -37 194 -59 270
-59 43 0 53 -3 44 -12 -22 -22 -14 -40 9 -19 18 16 19 22 8 39 -17 27 -7 37
20 20 25 -15 37 -4 48 45 6 27 24 34 57 21 36 -14 6 -104 -34 -104 -24 0 -37
-20 -20 -30 10 -6 10 -15 0 -45 -9 -27 -9 -40 -1 -48 8 -8 11 -6 11 7 0 25 25
14 26 -13 2 -29 4 -30 37 -24 23 5 27 10 27 40 0 20 4 32 10 28 17 -11 11 -64
-10 -85 -24 -24 -48 -25 -78 -4 -21 15 -22 14 -22 -15 0 -21 9 -39 25 -53 14
-12 25 -25 25 -30 0 -11 -54 2 -58 14 -5 11 -73 40 -80 34 -2 -3 5 -18 17 -34
24 -35 26 -42 9 -42 -7 1 -30 25 -51 55 -22 32 -46 56 -57 57 -11 0 -26 1 -32
2 -7 1 -16 6 -20 11 -5 6 -14 4 -24 -7 -33 -32 -7 -59 106 -109 57 -25 106
-51 108 -58 6 -17 -22 -9 -102 30 -33 16 -61 27 -64 25 -2 -3 9 -24 25 -48 16
-24 28 -50 28 -58 0 -8 10 -16 22 -18 22 -3 29 -13 17 -24 -3 -4 -37 7 -76 23
-39 16 -73 29 -75 29 -2 0 3 -10 11 -22 9 -12 16 -30 16 -40 0 -9 10 -22 21
-29 17 -9 19 -13 8 -20 -8 -5 -20 -3 -29 5 -15 12 -132 66 -144 66 -13 0 27
-65 57 -93 20 -19 27 -31 20 -38 -7 -7 -15 -5 -26 6 -20 19 -107 59 -114 52
-3 -3 7 -28 23 -56 30 -56 25 -80 -10 -41 -21 24 -168 130 -180 130 -3 0 -6
-79 -6 -177 l0 -176 133 6 c185 9 303 30 567 102 139 38 198 50 189 41 -11
-12 -327 -104 -429 -126 -107 -22 -340 -48 -418 -46 -47 1 -56 -9 -14 -17 89
-18 452 31 656 89 48 14 91 23 94 20 2 -3 -4 -9 -14 -12 -10 -4 -35 -13 -54
-21 -39 -16 -205 -58 -265 -68 -66 -10 -77 -25 -15 -19 l55 5 -70 -26 c-92
-34 -102 -45 -38 -45 105 0 383 101 383 139 0 12 2 13 8 4 5 -9 25 -11 60 -9
28 3 54 1 56 -3 7 -10 -117 -64 -194 -85 -36 -10 -94 -28 -130 -41 -66 -24
-179 -54 -280 -75 -30 -6 -106 -14 -167 -17 l-113 -6 0 -29 c0 -26 2 -28 43
-28 49 0 244 26 297 40 19 5 64 16 100 25 36 9 135 38 220 65 85 27 170 51
189 54 32 6 33 5 26 -22 -8 -36 -27 -52 -110 -97 -186 -100 -190 -103 -183
-111 5 -5 34 10 186 93 35 19 65 33 67 31 2 -2 -21 -47 -52 -101 -43 -77 -59
-97 -71 -92 -10 4 -51 11 -92 16 -41 6 -102 16 -135 23 -122 28 -258 19 -413
-26 l-72 -21 0 -292 0 -292 68 -30 c37 -17 77 -34 90 -37 26 -9 29 -26 5 -26
-10 -1 -38 -12 -63 -25 -42 -22 -43 -24 -17 -25 27 0 41 -30 15 -30 -7 -1 -26
-12 -43 -26 l-30 -26 31 4 c32 4 32 4 32 -43 0 -39 -5 -50 -27 -66 -14 -11
-34 -22 -44 -26 -15 -6 -17 -24 -17 -187 l0 -180 586 0 585 0 -3 27 c-4 37 19
40 66 8 83 -56 104 -14 28 60 -26 26 -37 41 -24 33 12 -7 22 -16 22 -21 0 -4
5 -5 10 -2 6 3 10 1 10 -5 0 -6 5 -8 12 -4 6 4 8 3 4 -4 -4 -7 11 -11 46 -10
92 1 98 -1 98 -21 0 -11 9 -23 21 -26 12 -4 18 -12 15 -21 -3 -8 -1 -14 4 -14
6 0 10 6 10 13 0 9 2 9 9 -1 6 -10 18 -11 48 -4 26 6 47 6 58 -1 12 -7 28 -6
49 1 58 20 103 23 116 7 17 -20 351 -20 567 0 87 8 213 16 280 17 l123 3 -1
95 c-1 68 -4 85 -9 60 -4 -19 -8 -29 -9 -21 -1 12 -4 11 -14 -3 -11 -15 -16
-15 -38 -4 -17 9 -25 21 -24 36 2 21 -6 26 -32 23 -27 -3 -21 18 7 24 40 9 28
26 -12 18 -22 -4 -29 -3 -24 5 5 8 0 12 -13 12 -11 0 -23 4 -26 10 -3 5 -14
10 -24 10 -19 0 -101 59 -101 73 0 19 28 34 75 41 98 14 185 17 220 7 47 -13
57 5 13 24 -33 14 -33 14 -6 15 23 0 28 5 32 32 2 18 12 254 21 523 9 270 20
587 25 704 11 249 9 256 -62 265 -24 3 -178 12 -343 21 -330 18 -547 38 -640
60 -154 36 -313 119 -425 222 -50 47 -70 59 -78 51 -9 -9 -12 -7 -12 9 0 11
-21 51 -46 88 -65 95 -129 235 -156 341 -20 79 -22 111 -21 299 1 187 20 607
54 1199 6 109 9 224 6 255 -4 31 -29 137 -57 236 -121 430 -240 862 -240 872
0 11 119 45 131 38 4 -3 10 -26 13 -52 4 -27 11 -61 17 -78 169 -544 195 -614
254 -687 75 -91 99 -360 75 -833 -57 -1110 -57 -1120 -21 -1232 50 -153 69
-193 123 -249 123 -130 155 -155 258 -208 l65 -34 1 102 c1 119 17 184 71 276
51 87 200 234 350 344 l121 90 -42 27 c-70 47 -164 149 -223 242 -37 57 -59
84 -64 76 -10 -16 -46 -19 -82 -7 -23 9 -30 6 -47 -13 -11 -13 -19 -30 -20
-36 0 -7 -8 -13 -19 -13 -10 0 -24 -7 -31 -15 -7 -9 -19 -14 -27 -11 -7 3 -13
1 -13 -4 0 -20 -66 3 -91 31 -40 45 -53 32 -24 -24 8 -15 10 -25 5 -22 -19 12
-37 61 -50 136 -11 66 -10 83 4 132 9 31 27 68 39 84 13 15 47 60 77 98 64 85
76 95 163 141 44 24 69 44 72 58 10 52 33 1034 25 1076 -5 25 -9 49 -10 54 0
4 -7 5 -15 2 -21 -8 -31 22 -14 39 8 8 46 27 84 44 l70 29 12 -36 13 -37 -4
42 c-4 38 -1 44 35 73 l39 31 0 74 0 75 30 0 c17 0 32 6 34 13 15 48 20 51 24
15 2 -21 6 -38 10 -38 4 0 108 -11 231 -25 124 -13 228 -22 232 -19 15 9 39
-9 39 -31 0 -42 -78 -79 -107 -50 -10 10 -18 11 -38 2 -14 -7 -25 -17 -25 -23
0 -5 -53 -23 -117 -40 -106 -26 -118 -31 -123 -54 -6 -24 -6 -24 -12 -4 l-6
22 -73 -18 c-41 -10 -93 -23 -115 -29 l-41 -11 9 -48 c10 -48 4 -676 -9 -886
l-6 -110 28 22 c35 28 41 28 49 -2 3 -13 22 -48 42 -77 54 -80 54 -105 3 -157
-31 -32 -49 -42 -65 -39 -20 3 -21 2 -11 -15 11 -17 21 -18 92 -13 44 3 99 8
123 11 l42 5 1 82 c1 45 1 86 0 90 -1 5 -4 29 -8 53 l-6 44 39 -1 c39 -1 39
-1 12 -12 -30 -12 -37 -27 -13 -27 17 0 19 -12 5 -26 -8 -8 -6 -15 5 -24 8 -7
15 -8 15 -3 0 5 12 9 28 8 19 0 30 7 37 23 5 12 14 21 18 19 5 -1 7 -5 5 -8
-2 -3 5 -13 14 -23 14 -13 22 -15 37 -6 11 5 39 10 62 10 34 0 40 -3 31 -12
-17 -17 -15 -43 3 -58 25 -21 40 1 27 38 -9 26 -8 31 9 35 13 4 17 10 13 22
-7 18 10 35 35 35 11 0 10 -4 -3 -19 -24 -26 -14 -38 37 -46 46 -8 70 -22 61
-36 -3 -5 2 -9 10 -9 10 0 13 -6 10 -15 -4 -9 0 -15 10 -15 9 0 16 6 16 14 0
7 9 16 20 19 20 5 26 -3 13 -17 -5 -4 -8 -13 -8 -19 0 -23 -296 -36 -378 -18
-28 7 -37 6 -34 -2 2 -7 43 -18 91 -26 69 -12 93 -12 119 -3 46 16 130 16 124
0 -2 -9 -21 -12 -53 -11 l-49 3 35 -14 c19 -7 51 -12 70 -11 19 2 27 1 17 -2
-13 -3 -17 -13 -16 -31 4 -55 -1 -102 -12 -102 -7 0 -9 12 -5 35 8 38 -7 75
-29 75 -10 0 -15 -15 -17 -47 -2 -27 -7 -48 -13 -48 -5 0 -8 19 -7 42 3 33 -1
44 -16 52 -26 14 -42 -4 -42 -49 0 -20 -5 -41 -11 -47 -8 -8 -7 -17 3 -32 15
-25 28 -27 28 -6 0 22 17 18 23 -5 4 -15 0 -20 -16 -20 -12 0 -33 -11 -46 -25
l-23 -25 33 6 c19 4 39 11 45 15 6 5 40 13 76 18 80 11 108 25 109 54 0 21 1
21 8 2 14 -35 -5 -52 -72 -65 -41 -8 -68 -20 -75 -31 -10 -16 -7 -19 24 -25
74 -14 8 -25 -116 -19 -173 8 -240 15 -278 31 -18 7 -30 9 -27 3 10 -15 69
-37 135 -50 33 -6 65 -18 71 -25 15 -18 83 -18 156 1 65 17 97 19 89 6 -3 -5
2 -12 11 -15 15 -6 15 -9 3 -16 -11 -7 -8 -10 13 -15 15 -4 33 -5 41 -2 8 3
17 -2 21 -11 6 -14 9 -13 19 8 9 20 11 0 14 -115 1 -77 4 -146 7 -153 8 -21
37 2 49 39 9 26 17 33 34 32 12 -2 22 2 22 8 0 13 228 3 266 -11 25 -10 26
-13 20 -61 -10 -71 -24 -105 -38 -91 -12 12 -21 1 -51 -61 -21 -43 -54 -54
-191 -62 l-126 -7 0 -91 c0 -134 -17 -215 -51 -250 -34 -34 -35 -38 -9 -62 11
-10 17 -22 14 -26 -3 -5 0 -9 5 -9 6 0 11 -16 11 -36 l0 -37 87 5 c73 4 89 8
104 26 11 15 28 22 50 22 40 0 89 43 89 77 0 13 11 35 26 49 20 21 31 24 52
19 15 -4 74 -9 132 -11 58 -1 106 -6 108 -11 6 -17 -7 -43 -21 -43 -35 0 -165
-66 -221 -112 -72 -59 -136 -126 -136 -144 0 -6 -11 -19 -25 -28 -14 -9 -25
-23 -25 -30 0 -8 -11 -16 -23 -20 -15 -3 -30 -20 -41 -43 -20 -45 -46 -78 -66
-86 -8 -3 3 -6 25 -7 22 -1 51 -6 65 -11 68 -24 -501 12 -970 62 -127 13 -268
42 -309 64 -42 21 -40 0 2 -25 17 -11 25 -20 18 -20 -11 0 -12 -3 -4 -11 25
-25 248 -51 853 -100 146 -12 274 -23 285 -24 11 -1 65 -5 121 -9 56 -5 107
-11 113 -16 13 -7 -8 -7 -219 10 -69 5 -201 14 -295 20 -93 6 -208 15 -255 20
-131 15 -244 19 -228 8 9 -7 5 -7 -12 -2 -14 4 -41 8 -60 9 -19 1 -42 5 -50 9
-8 3 -42 8 -75 10 -33 1 -67 5 -75 9 -28 10 -130 17 -130 8 0 -5 8 -11 18 -15
9 -3 38 -19 64 -35 52 -33 148 -51 267 -51 38 0 93 -5 122 -10 30 -6 115 -15
189 -20 74 -5 167 -14 206 -19 39 -6 154 -13 255 -16 101 -4 213 -8 249 -9 36
-1 82 1 103 6 21 5 43 5 49 2 6 -4 71 -8 144 -9 85 -2 139 -7 148 -14 9 -8 16
-8 20 -2 4 6 18 6 39 0 21 -6 33 -6 35 1 2 5 13 10 25 10 18 0 20 -2 7 -11
-13 -10 -13 -10 0 -6 8 3 24 9 34 13 14 5 17 4 12 -5 -6 -9 -1 -10 18 -5 16 4
26 2 26 -4 0 -6 15 -11 33 -10 82 0 191 -13 198 -23 5 -8 26 -10 66 -6 35 3
50 2 38 -3 -15 -7 -11 -9 20 -9 31 0 36 2 20 9 -17 7 -15 9 12 9 17 1 38 -5
46 -13 9 -9 19 -11 28 -5 19 12 42 11 34 -1 -4 -6 6 -10 22 -11 15 0 51 -3 78
-7 28 -3 95 -6 150 -6 57 0 103 -5 107 -11 10 -14 10 -93 0 -99 -5 -3 -103 4
-218 14 -511 47 -914 80 -966 80 l-57 0 0 -47 c0 -27 -3 -93 -7 -148 -4 -55
-8 -269 -8 -476 -1 -305 2 -379 13 -392 9 -11 10 -21 4 -29 -18 -24 -13 -59
10 -68 12 -5 16 -9 9 -9 -7 -1 -11 -5 -7 -10 3 -5 1 -12 -5 -16 -6 -4 -8 -11
-4 -16 3 -6 -2 -17 -12 -25 -18 -14 -18 -15 1 -32 28 -24 22 -71 -8 -66 -22 4
-22 4 1 -5 18 -9 21 -16 16 -38 -4 -16 -7 -32 -8 -38 0 -5 -5 -14 -11 -18 -6
-6 -5 -10 3 -14 10 -4 10 -8 0 -20 -10 -12 -9 -18 7 -29 14 -11 15 -14 4 -14
-8 0 -24 7 -35 15 -40 31 -67 13 -53 -35 l7 -25 1 28 c1 16 7 27 15 27 28 0
46 -12 46 -32 0 -11 5 -29 11 -40 10 -18 9 -20 -5 -15 -11 5 -16 1 -16 -13 0
-11 -4 -20 -10 -20 -5 0 -10 -7 -10 -15 0 -8 7 -15 17 -15 15 0 14 -2 -2 -20
-9 -10 -15 -26 -11 -35 3 -8 -3 -31 -14 -50 -18 -31 -18 -35 -3 -43 15 -9 15
-13 -2 -53 -9 -24 -19 -50 -22 -56 -4 -10 357 -13 1786 -13 l1791 0 0 2289 c0
1822 -3 2290 -12 2294 -10 4 -10 6 0 6 8 1 12 25 12 86 0 47 -2 85 -5 85 -14
0 -64 -31 -69 -42 -3 -7 -4 24 -1 69 4 70 8 85 30 107 32 32 34 88 5 113 -15
13 -20 29 -19 68 0 50 15 154 18 124 0 -9 10 -24 21 -34 20 -18 20 -17 20 56
l-1 74 -25 -29 -26 -29 8 94 c5 75 11 97 25 107 25 17 26 97 2 124 -15 17 -15
26 -3 106 8 48 15 176 17 284 l4 197 -33 5 c-18 4 -139 17 -268 31 -129 14
-254 28 -277 31 l-43 6 0 -52 0 -52 -31 26 c-37 31 -58 33 -93 5 -34 -27 -35
-71 -1 -104 30 -30 64 -32 99 -4 14 11 26 16 26 10 0 -5 17 -13 38 -17 20 -4
51 -13 67 -19 17 -7 44 -10 62 -8 27 4 198 -13 320 -33 31 -4 31 -6 21 -35 -8
-24 -8 -33 2 -39 10 -6 10 -21 -4 -74 -9 -36 -18 -110 -21 -163 -3 -54 -7
-125 -10 -158 -3 -33 -7 -130 -10 -215 -6 -213 -16 -473 -21 -545 -2 -33 -6
-143 -9 -245 -7 -261 -16 -487 -22 -540 -3 -25 -6 -88 -8 -140 -4 -116 -16
-122 -63 -30 -27 54 -32 73 -27 109 4 37 1 49 -17 68 -28 29 -78 31 -103 3
-48 -53 0 -146 72 -138 31 4 33 2 33 -28 0 -45 -11 -94 -21 -94 -5 0 -9 7 -9
15 0 31 -23 63 -56 75 -19 8 -34 17 -34 21 0 4 -9 10 -19 14 -11 3 -22 16 -24
28 -4 22 -4 22 -6 -1 -2 -47 -21 -9 -21 44 0 30 -6 65 -14 77 -8 12 -23 56
-35 97 -38 140 -63 193 -102 212 -39 20 -111 22 -192 7 -70 -12 -90 -7 -107
29 -11 22 -14 24 -17 10 -5 -21 -7 -21 -50 -6 -32 12 -39 27 -35 78 1 8 -5 43
-14 77 -8 34 -12 73 -8 87 4 17 -1 39 -13 63 -17 35 -18 52 -11 228 4 105 12
253 16 330 5 77 6 146 2 153 -3 7 -12 -110 -18 -260 -19 -409 -22 -440 -41
-436 -12 3 -16 16 -17 48 -1 66 -2 68 -23 75 -12 3 -21 17 -23 32 -2 15 -9 28
-16 29 -7 1 -8 0 -2 -3 10 -5 14 -33 4 -33 -11 0 -34 29 -34 44 0 9 -8 16 -20
16 -15 0 -20 7 -20 29 0 91 104 2155 114 2256 2 22 7 120 11 219 6 148 5 178
-6 174 -10 -3 -16 -36 -20 -119 -11 -193 -28 -480 -49 -814 -11 -176 -24 -412
-30 -525 -5 -113 -17 -347 -25 -520 -8 -173 -19 -396 -23 -495 l-7 -180 -35 3
c-19 1 -38 9 -42 16 -4 8 -18 11 -31 9 -19 -4 -34 8 -78 57 -137 157 -135 155
-239 180 -86 20 -151 26 -236 20 -19 -1 -45 8 -69 24 -41 28 -80 34 -88 12 -7
-16 -70 -2 -132 31 -22 11 -54 24 -72 27 -17 4 -53 27 -79 50 -47 43 -48 44
-31 67 10 13 29 39 42 58 33 45 40 93 27 173 -16 90 -29 116 -74 139 -47 24
-60 24 -83 -1 -23 -25 -35 -26 -35 -2 0 34 35 55 80 49 35 -4 40 -3 36 11 -34
131 -57 220 -70 277 -21 90 -75 223 -103 255 -13 14 -23 29 -23 34 0 4 -13 23
-29 41 -16 18 -30 37 -32 42 -8 18 -96 83 -160 117 -82 44 -188 68 -299 66
-47 -1 -92 -2 -100 -2 -49 0 -170 -50 -270 -113 -32 -20 -141 -115 -162 -140
-43 -53 -61 -81 -98 -150 -24 -44 -46 -84 -51 -89 -7 -8 -177 5 -268 21 l-34
6 7 271 c9 389 25 917 31 1014 l5 82 -50 0 c-38 0 -50 -4 -50 -15 0 -10 -11
-15 -35 -15 -24 0 -35 5 -35 15 0 9 -10 15 -26 15 -19 0 -25 -4 -20 -15 4 -11
-2 -15 -24 -15 -30 0 -41 14 -17 23 6 3 -3 6 -21 6 -20 1 -31 -3 -27 -9 4 -6
-22 -10 -72 -9 -56 0 -72 3 -58 10 14 6 7 7 -25 4 -25 -3 -56 -5 -70 -5 -14 0
-222 3 -462 6 -429 5 -438 5 -438 -14z m-301 -1078 c-10 -13 -10 -17 2 -25 12
-7 11 -9 -3 -9 -26 0 -32 20 -12 35 25 19 29 19 13 -1z m-944 -144 c3 -5 -1
-10 -10 -10 -9 0 -13 5 -10 10 3 6 8 10 10 10 2 0 7 -4 10 -10z m80 -20 c-3
-5 -15 -10 -26 -10 -11 0 -17 5 -14 10 3 6 15 10 26 10 11 0 17 -4 14 -10z
m410 -21 c7 -8 -6 -9 -44 -4 -30 4 -86 11 -125 16 -58 6 -50 7 44 3 63 -2 119
-9 125 -15z m-317 -6 c-10 -2 -26 -2 -35 0 -10 3 -2 5 17 5 19 0 27 -2 18 -5z
m729 -15 c-3 -8 -6 -5 -6 6 -1 11 2 17 5 13 3 -3 4 -12 1 -19z m-619 5 c-10
-2 -28 -2 -40 0 -13 2 -5 4 17 4 22 1 32 -1 23 -4z m3368 -217 c28 -1 57 -7
65 -12 8 -4 21 -9 29 -9 8 0 16 -10 18 -22 2 -13 8 -23 13 -23 10 0 12 -34 3
-67 -4 -16 -16 -23 -45 -28 -22 -4 -37 -11 -34 -16 4 -5 -3 -19 -14 -31 -25
-26 -26 -34 -4 -46 15 -9 14 -10 -3 -20 -10 -5 -46 -13 -78 -17 -33 -4 -69
-13 -80 -20 -12 -7 -43 -18 -71 -25 -27 -7 -64 -18 -82 -26 -17 -8 -36 -14
-42 -14 -6 0 -11 -6 -11 -13 0 -14 -31 -44 -66 -64 -16 -8 -24 -9 -32 -1 -8 8
-14 5 -21 -13 -5 -13 -11 -19 -12 -14 -1 6 -2 15 -4 20 -1 6 -3 16 -3 24 -1 8
-8 11 -18 7 -9 -4 -31 -2 -48 3 -17 5 -66 20 -108 33 l-76 23 -7 82 c-12 143
9 252 49 254 11 0 39 2 61 4 22 1 48 -2 58 -7 28 -15 136 -11 161 5 27 18 111
34 191 36 33 2 62 5 65 8 3 2 25 2 50 -2 25 -3 68 -7 96 -9z m-2879 -83 c-3
-10 -5 -4 -5 12 0 17 2 24 5 18 2 -7 2 -21 0 -30z m1083 -99 c14 -36 13 -39
-10 -19 -21 19 -27 45 -10 45 6 0 15 -12 20 -26z m825 -54 c7 0 15 -9 18 -20
3 -11 1 -20 -3 -20 -12 0 -80 -97 -80 -114 0 -8 5 -18 10 -21 13 -8 13 -42 1
-50 -5 -3 -52 -1 -103 5 -51 5 -187 19 -303 30 -243 23 -262 27 -269 45 -7 18
11 24 144 49 108 20 115 23 119 46 l4 25 7 -25 c7 -28 5 -28 120 -6 272 53
305 62 309 82 5 17 5 17 9 -3 2 -13 9 -23 17 -23z m-1890 -80 c-27 -12 -43
-12 -25 0 8 5 22 9 30 9 10 0 8 -3 -5 -9z m72 -12 c-3 -8 -6 -5 -6 6 -1 11 2
17 5 13 3 -3 4 -12 1 -19z m1897 -34 c3 -8 11 -12 16 -9 6 4 17 2 25 -5 7 -6
36 -11 64 -12 56 0 66 -11 24 -26 l-28 -10 28 -1 c23 -1 27 -5 27 -31 0 -28
-1 -29 -27 -19 -16 6 -28 10 -28 9 0 -2 -39 7 -95 21 -34 8 -36 11 -38 54 -1
32 2 45 12 45 8 0 17 -7 20 -16z m1598 -28 c15 -26 6 -26 -21 0 -20 18 -21 22
-6 20 9 -1 22 -10 27 -20z m-72 4 c0 -5 -4 -10 -10 -10 -5 0 -10 5 -10 10 0 6
5 10 10 10 6 0 10 -4 10 -10z m-273 -25 c0 -8 -6 -15 -14 -15 -17 0 -17 17 0
23 6 3 12 6 13 6 0 1 1 -6 1 -14z m-1282 -45 c18 -8 17 -9 -7 -9 -16 -1 -28 4
-28 9 0 12 8 12 35 0z m-781 -50 c8 -16 11 -30 7 -30 -15 0 -43 39 -36 49 9
16 12 14 29 -19z m-891 3 c2 -5 7 -21 11 -38 7 -29 7 -29 -13 -11 -21 19 -29
56 -12 56 6 0 12 -3 14 -7z m1913 -21 c-8 -14 12 -77 32 -98 9 -11 31 -25 47
-33 l30 -13 -25 -10 -25 -9 28 -23 c51 -41 102 -23 148 51 17 27 20 44 16 83
-3 28 -2 50 1 50 20 -1 59 -52 76 -98 14 -42 17 -66 11 -110 -4 -32 -8 -74 -8
-95 -2 -39 -2 -39 62 -74 2 -1 1 -10 -3 -19 -6 -15 -9 -15 -27 5 -26 28 -64
25 -64 -5 -1 -28 -23 -54 -47 -54 -26 0 -33 25 -18 71 12 35 11 42 -3 56 -14
15 -18 14 -44 -13 -16 -16 -36 -44 -44 -61 -13 -30 -21 -37 -42 -34 -4 0 -6
-2 -6 -6 11 -66 -46 -5 -72 76 -11 38 -23 110 -26 168 l-6 102 -56 6 c-69 8
-81 12 -81 24 0 6 25 8 65 4 l65 -6 0 37 c0 20 5 36 11 36 5 0 8 -4 5 -8z
m578 -51 c-2 -2 -14 -1 -28 3 -19 5 -24 11 -19 24 11 30 27 32 39 4 6 -15 10
-29 8 -31z m-2631 34 c-3 -9 -8 -14 -10 -11 -3 3 -2 9 2 15 9 16 15 13 8 -4z
m3382 -6 c4 -5 -5 -21 -20 -35 -27 -25 -45 -31 -45 -14 0 6 6 10 14 10 8 0 17
11 20 25 7 26 20 32 31 14z m-1219 -44 l11 -35 -32 0 c-30 0 -32 2 -27 28 4
24 18 41 32 42 3 0 10 -16 16 -35z m744 5 c0 -5 6 -7 13 -4 35 13 58 -81 31
-123 -8 -12 -14 -28 -14 -35 0 -7 -16 -26 -36 -42 -28 -22 -42 -27 -65 -22
-16 3 -53 1 -81 -5 -48 -11 -53 -10 -70 11 -10 12 -18 18 -18 13 0 -5 5 -14
12 -21 9 -9 9 -12 -3 -12 -25 0 -69 24 -69 38 0 6 -6 12 -13 12 -7 0 -20 9
-29 19 -12 14 -13 22 -5 31 9 9 7 15 -8 27 l-20 16 20 -8 c11 -4 30 -10 42
-12 14 -3 20 -10 16 -17 -4 -6 1 -5 10 2 9 8 31 12 50 11 19 -2 41 2 49 9 8 6
28 15 45 18 30 6 93 52 93 68 0 10 31 35 43 36 4 0 7 -4 7 -10z m-2870 -56 c0
-8 -4 -12 -10 -9 -5 3 -10 10 -10 16 0 5 5 9 10 9 6 0 10 -7 10 -16z m1710
-30 c0 -2 -9 -4 -21 -4 -11 0 -18 4 -14 10 5 8 35 3 35 -6z m-1684 -56 c9 -29
19 -59 22 -67 3 -8 -3 -7 -16 5 -12 10 -22 30 -22 44 0 14 -4 32 -9 40 -9 12
-6 30 4 30 2 0 11 -24 21 -52z m1624 -88 c0 -5 -11 -10 -25 -10 -14 0 -25 5
-25 10 0 6 11 10 25 10 14 0 25 -4 25 -10z m35 -82 c4 -29 7 -68 8 -87 2 -34
1 -35 -36 -34 -21 0 -40 3 -44 6 -3 4 2 37 11 74 27 107 51 123 61 41z m-70
20 c-3 -13 -12 -45 -18 -73 l-13 -50 -49 1 c-74 2 -125 8 -125 15 0 23 52 93
71 96 12 2 41 10 63 18 62 21 80 20 71 -7z m-1391 -34 c11 -27 7 -37 -9 -24
-16 14 -20 40 -6 40 5 0 12 -7 15 -16z m1156 -29 c-26 -27 -42 -35 -69 -35
-20 0 -42 4 -50 9 -18 12 8 26 66 36 22 3 49 13 60 20 32 23 28 6 -7 -30z
m-1285 -5 c3 -5 1 -10 -4 -10 -6 0 -11 5 -11 10 0 6 2 10 4 10 3 0 8 -4 11
-10z m1303 -20 c-7 -11 -17 -20 -22 -20 -5 0 -1 9 9 20 10 11 20 20 22 20 2 0
-2 -9 -9 -20z m-88 -44 c0 -3 -4 -8 -10 -11 -5 -3 -10 -1 -10 4 0 6 5 11 10
11 6 0 10 -2 10 -4z m980 -17 c0 -6 19 -28 42 -49 38 -36 40 -42 30 -65 -12
-26 -40 -32 -72 -15 -13 7 -21 5 -31 -7 -12 -15 -12 -16 4 -10 9 3 17 2 17 -3
0 -6 14 -24 30 -42 17 -17 30 -34 30 -38 0 -6 34 -53 68 -95 4 -5 19 -17 32
-26 20 -13 23 -19 12 -31 -6 -8 -9 -18 -5 -22 4 -4 0 -4 -9 -1 -19 8 -75 88
-103 148 -10 21 -31 48 -48 60 -32 24 -127 143 -127 161 0 6 8 0 17 -14 9 -13
25 -32 34 -41 15 -15 18 -15 23 -2 3 8 6 23 6 34 0 22 28 69 41 69 5 0 9 -5 9
-11z m-1893 -49 c-19 -16 -39 -30 -43 -30 -11 1 58 59 69 60 4 0 -8 -13 -26
-30z m1196 -63 c3 -8 1 -20 -4 -28 -6 -10 -9 -7 -9 14 0 29 5 35 13 14z m33
-22 c1 -8 -4 -15 -11 -15 -8 0 -11 7 -8 20 6 22 15 19 19 -5z m-119 9 c-3 -3
-12 -4 -19 -1 -8 3 -5 6 6 6 11 1 17 -2 13 -5z m4292 -283 c-7 -2 -8 -6 -2
-10 6 -3 7 -25 3 -51 -4 -30 -2 -54 7 -72 18 -36 9 -35 -25 3 -26 28 -27 35
-24 112 l4 82 24 -30 c14 -18 19 -32 13 -34z m-4154 28 c13 -12 38 -11 30 1
-3 6 3 10 13 10 15 0 22 -9 26 -35 4 -20 4 -45 1 -55 -5 -14 -2 -20 10 -20 9
0 15 -6 12 -12 -2 -7 0 -21 4 -30 7 -13 4 -20 -12 -28 -16 -9 -19 -17 -14 -39
l6 -28 -73 -7 c-40 -4 -80 -6 -88 -6 -62 3 -80 -2 -113 -31 -31 -28 -34 -34
-27 -65 9 -41 -13 -103 -26 -71 -3 10 -1 24 6 33 9 10 10 18 3 25 -14 14 -38
0 -38 -21 0 -8 -8 -16 -17 -18 -29 -6 -21 9 52 96 71 86 82 110 55 132 -17 14
-10 60 12 73 10 6 12 18 8 37 -4 16 -2 38 4 48 9 16 17 18 51 12 34 -6 38 -5
29 7 -10 12 -5 13 32 7 24 -4 48 -10 54 -15z m3102 -51 c-3 -8 -6 -5 -6 6 -1
11 2 17 5 13 3 -3 4 -12 1 -19z m1066 -196 c-6 -4 -16 -27 -23 -52 -7 -25 -17
-51 -22 -57 -7 -9 -6 -13 3 -13 12 0 12 -2 0 -9 -18 -11 1 -23 26 -15 15 5 15
4 -2 -6 -49 -30 -60 -89 -26 -131 12 -15 16 -30 12 -39 -10 -19 -8 -106 2
-116 4 -4 7 -13 7 -21 0 -8 -16 2 -36 22 l-35 36 10 125 c6 69 11 152 11 185
0 42 4 59 13 59 8 0 24 11 37 25 13 14 26 22 29 19 3 -3 0 -8 -6 -12z m-4303
-92 c0 -5 -7 -10 -16 -10 -8 0 -12 5 -9 10 3 6 10 10 16 10 5 0 9 -4 9 -10z
m295 0 c3 -5 1 -10 -4 -10 -6 0 -11 5 -11 10 0 6 2 10 4 10 3 0 8 -4 11 -10z
m-405 -141 c0 -16 -18 -10 -34 13 -26 37 -19 57 9 25 14 -15 25 -32 25 -38z
m58 42 c3 -8 -1 -12 -9 -9 -7 2 -15 10 -17 17 -3 8 1 12 9 9 7 -2 15 -10 17
-17z m107 -10 c0 -7 -10 -20 -22 -28 -20 -14 -23 -14 -29 1 -3 9 -1 23 6 32
15 18 45 15 45 -5z m-179 -99 c-4 -3 -11 -1 -18 6 -8 8 -8 15 3 28 13 16 14
16 17 -5 2 -13 1 -25 -2 -29z m414 28 c8 -15 6 -21 -9 -30 -20 -10 -40 3 -22
15 6 3 8 12 4 20 -8 22 15 18 27 -5z m-317 -16 c-15 -24 -17 -25 -24 -8 -12
30 -10 34 16 34 25 0 25 0 8 -26z m387 -64 c0 -5 -5 -10 -11 -10 -5 0 -7 5 -4
10 3 6 8 10 11 10 2 0 4 -4 4 -10z m-24 -146 c1 -38 -2 -76 -7 -84 -5 -10 -9
7 -9 48 0 48 -3 62 -15 62 -8 0 -15 5 -15 10 0 6 7 10 16 10 11 0 14 5 10 16
-4 10 -1 14 6 12 9 -3 14 -28 14 -74z m2840 41 c88 -26 153 -97 154 -166 0
-19 0 -42 1 -51 0 -10 0 -42 0 -70 0 -50 5 -103 9 -103 9 0 18 -217 9 -230 -3
-5 -16 -44 -28 -85 -13 -41 -25 -79 -27 -85 -15 -34 -35 -60 -46 -61 -50 -4
-49 -3 -36 -24 7 -10 9 -23 5 -27 -5 -4 -12 -2 -16 5 -4 7 -15 10 -25 6 -10
-4 -21 -2 -25 5 -9 14 -61 4 -61 -11 0 -6 -11 -7 -24 -4 -14 3 -66 8 -118 11
-94 6 -228 45 -228 66 0 6 -4 8 -9 4 -5 -3 -13 0 -16 5 -4 6 -19 11 -33 10
-53 -4 -81 0 -94 13 -14 14 -92 11 -83 -3 6 -10 -32 -2 -62 12 -12 6 -28 8
-37 5 -8 -3 -20 1 -27 9 -7 8 -18 13 -26 10 -8 -3 -21 -2 -31 3 -64 33 -161
63 -174 55 -5 -3 -14 -1 -21 5 -14 11 -116 29 -157 28 -14 0 -36 5 -50 11 -14
6 -101 27 -195 47 -93 19 -194 41 -223 50 -91 25 -279 20 -310 -8 -15 -13 -57
-25 -112 -32 -17 -2 -65 -20 -97 -37 -32 -16 -56 -4 -46 24 4 13 7 41 6 63 -1
22 -2 50 -2 63 -1 13 5 33 13 44 13 18 12 25 -2 55 -20 43 -11 60 48 90 28 15
48 34 56 53 7 17 23 34 36 39 13 5 134 7 269 6 265 -3 249 -1 564 -77 117 -28
191 -40 275 -45 109 -5 453 11 485 23 8 4 15 18 15 33 0 14 13 49 30 77 83
146 307 237 466 189z m-2754 -72 c24 -9 63 -30 88 -48 25 -17 65 -43 90 -57
61 -35 126 -93 133 -117 3 -14 1 -18 -9 -14 -8 3 -14 13 -14 22 0 20 -51 47
-105 55 -93 13 -120 22 -120 36 0 17 -82 24 -101 9 -8 -6 -14 -4 -18 7 -10 25
-7 124 4 124 5 0 29 -7 52 -17z m-282 -27 c0 -19 -4 -38 -10 -41 -6 -4 -10 10
-10 34 0 23 5 41 10 41 6 0 10 -15 10 -34z m70 0 c0 -14 -4 -28 -10 -31 -6 -4
-10 7 -10 24 0 17 5 31 10 31 6 0 10 -11 10 -24z m57 -48 c-3 -7 -5 -2 -5 12
0 14 2 19 5 13 2 -7 2 -19 0 -25z m-87 -39 c0 -20 -15 -26 -25 -9 -9 15 3 43
15 35 5 -3 10 -15 10 -26z m30 10 c0 -11 -4 -17 -10 -14 -5 3 -10 13 -10 21 0
8 5 14 10 14 6 0 10 -9 10 -21z m147 -55 c9 -25 -24 -44 -71 -43 -23 1 -32 3
-21 6 11 2 30 6 43 9 13 2 20 9 17 14 -7 12 2 30 16 30 5 0 12 -7 16 -16z m3
-67 c0 -8 -3 -17 -7 -21 -5 -4 -8 -11 -9 -14 -3 -24 -18 -39 -37 -37 -35 4
-37 5 -37 15 0 5 6 7 14 4 7 -3 16 2 19 10 4 9 1 16 -6 16 -7 0 2 9 18 20 35
23 45 25 45 7z m3730 -87 c-20 -13 -43 -13 -35 0 3 6 16 10 28 10 18 0 19 -2
7 -10z m-5280 -230 c0 -5 14 -32 30 -60 l31 -52 -30 -62 c-16 -34 -35 -81 -42
-104 -6 -23 -15 -42 -19 -42 -12 0 -32 128 -25 162 25 121 38 168 46 168 5 0
9 -4 9 -10z m2993 -30 l67 -12 2 -37 c0 -20 1 -44 0 -53 -1 -10 3 -18 8 -18 6
0 10 -7 10 -15 0 -22 -13 -18 -29 8 l-15 22 -6 -25 c-3 -15 -15 -26 -30 -30
-24 -6 -41 -30 -21 -30 6 0 11 -9 11 -20 0 -22 -24 -27 -50 -10 -12 7 -12 12
-2 22 20 20 14 28 -15 17 -28 -10 -42 0 -44 31 0 10 -3 8 -8 -5 -5 -11 -6 -24
-3 -29 3 -5 -6 -17 -19 -27 -20 -15 -26 -16 -39 -4 -8 7 -27 17 -43 20 -24 6
-29 4 -38 -24 -9 -26 -15 -30 -44 -29 -28 1 -31 3 -20 15 8 7 21 13 29 13 9 0
16 7 16 15 0 17 -25 21 -35 5 -3 -5 -12 -7 -20 -4 -16 7 -37 -28 -29 -50 7
-19 -25 -36 -70 -36 -19 0 -38 -4 -41 -10 -11 -18 -26 -10 -20 10 3 11 2 20
-3 20 -5 0 -13 20 -16 45 -6 35 -12 46 -29 49 -12 3 -51 10 -87 16 -36 6 -73
13 -82 16 -14 4 -17 -3 -20 -38 l-3 -44 -135 14 c-74 7 -153 18 -174 23 l-39
11 69 34 c38 19 74 41 80 49 6 8 18 15 26 15 9 0 27 9 41 20 14 11 30 20 35
20 6 0 24 8 41 17 28 17 34 17 115 0 156 -32 188 -31 331 7 141 37 210 41 348
16z m2452 -9 c3 -5 1 -12 -5 -16 -5 -3 -10 1 -10 9 0 18 6 21 15 7z m-3415
-25 c0 -2 -16 -6 -35 -8 -19 -2 -35 0 -35 4 0 4 16 8 35 8 19 0 35 -2 35 -4z
m83 -13 c-7 -2 -19 -2 -25 0 -7 3 -2 5 12 5 14 0 19 -2 13 -5z m-96 -43 c1
-11 -2 -18 -8 -15 -11 7 -12 35 -1 35 4 0 8 -9 9 -20z m-57 -29 c-6 -12 -15
-21 -21 -21 -5 0 -2 11 8 24 21 28 29 27 13 -3z m1250 -56 c0 -19 -26 -26 -55
-15 -23 9 -31 21 -20 31 10 10 75 -4 75 -16z m-134 -12 c-10 -10 -19 5 -10 18
6 11 8 11 12 0 2 -7 1 -15 -2 -18z m-43 -10 c-7 -2 -19 -2 -25 0 -7 3 -2 5 12
5 14 0 19 -2 13 -5z m27 -23 c0 -5 -7 -10 -16 -10 -8 0 -12 5 -9 10 3 6 10 10
16 10 5 0 9 -4 9 -10z m125 -21 c4 -6 12 -8 19 -6 19 8 52 -21 39 -34 -7 -7
-13 -7 -17 0 -4 5 -13 8 -21 4 -8 -3 -15 0 -15 6 0 6 -12 11 -26 11 -22 0 -25
2 -14 15 15 18 26 19 35 4z m-925 -34 c0 -11 -11 -15 -39 -15 -52 0 -62 18
-14 23 21 2 41 4 46 5 4 1 7 -5 7 -13z m440 -25 c0 -5 -6 -10 -14 -10 -8 0
-18 5 -21 10 -3 6 3 10 14 10 12 0 21 -4 21 -10z m627 -35 c54 -50 60 -52 66
-27 4 14 6 13 12 -6 6 -18 13 -22 31 -18 13 4 25 1 28 -7 5 -9 7 -9 12 1 7 14
34 17 34 3 0 -5 -6 -12 -12 -15 -7 -3 2 -5 19 -3 25 3 34 -1 39 -15 3 -10 14
-18 24 -18 18 0 30 -17 37 -55 2 -11 8 -24 13 -29 5 -5 5 -18 0 -31 -6 -15 -4
-27 3 -35 9 -10 9 -14 0 -17 -7 -3 -13 -12 -13 -21 -1 -13 -4 -11 -13 6 -7 12
-16 19 -20 16 -4 -4 -7 5 -7 20 0 16 -4 25 -10 21 -5 -3 -10 -15 -10 -27 0
-17 -2 -18 -15 -8 -8 7 -15 10 -15 7 0 -3 25 -29 55 -58 59 -55 70 -91 38
-115 -17 -12 -17 -13 0 -19 21 -9 22 -28 2 -45 -11 -9 -12 -17 -5 -30 14 -26
13 -30 -9 -30 -10 0 -24 7 -32 16 -10 13 -10 17 1 24 11 7 8 10 -12 15 -19 5
-28 17 -38 47 -9 31 -14 38 -21 27 -7 -11 -9 -10 -10 6 -1 11 0 31 1 44 1 13
-2 21 -7 18 -11 -7 -43 28 -43 47 0 18 -25 38 -35 28 -4 -4 -4 3 -1 16 8 24 2
28 -49 36 -16 2 -31 5 -33 5 -1 1 2 10 8 20 7 13 7 22 0 26 -5 3 -10 1 -10 -4
0 -15 -27 -14 -33 2 -4 9 -8 9 -15 -2 -15 -21 -35 -3 -28 25 4 13 2 24 -4 24
-5 0 -22 13 -37 28 -22 22 -36 28 -65 27 -26 -1 -35 2 -31 12 3 7 -2 16 -11
19 -12 5 -14 10 -6 20 7 7 17 11 24 8 7 -3 19 2 26 11 8 9 29 15 56 15 33 0
47 5 56 20 7 11 14 20 15 20 1 0 23 -20 50 -45z m-252 -15 c-3 -5 -11 -10 -16
-10 -6 0 -7 5 -4 10 3 6 11 10 16 10 6 0 7 -4 4 -10z m15 -90 c0 -5 -2 -10 -4
-10 -3 0 -8 5 -11 10 -3 6 -1 10 4 10 6 0 11 -4 11 -10z m1590 -75 c10 -12 10
-21 2 -38 l-12 -22 3 22 c1 13 -7 29 -18 37 -17 13 -17 15 -4 16 9 0 22 -7 29
-15z m-1885 -79 l35 -15 -1 -65 c-1 -39 -7 -70 -14 -76 -15 -13 -156 -30 -188
-23 -20 4 -21 4 -3 -7 12 -8 49 -11 106 -8 49 2 86 0 84 -4 -3 -4 -13 -8 -22
-8 -15 -1 -15 -2 -2 -13 25 -20 18 -50 -17 -75 -19 -13 -38 -20 -44 -17 -5 4
-15 2 -22 -3 -7 -5 -43 -9 -81 -8 -63 1 -70 3 -79 26 -15 38 -14 265 2 284 30
36 172 43 246 12z m70 -6 c-3 -5 -12 -10 -18 -10 -7 0 -6 4 3 10 19 12 23 12
15 0z m1825 -53 c0 -5 -4 -5 -10 -2 -5 3 -10 14 -10 23 0 15 2 15 10 2 5 -8
10 -19 10 -23z m-4720 -8 c0 -6 -4 -7 -10 -4 -5 3 -10 11 -10 16 0 6 5 7 10 4
6 -3 10 -11 10 -16z m1708 -24 c-3 -12 -29 -8 -43 7 -7 6 -1 8 18 6 15 -2 26
-7 25 -13z m3052 -20 c7 -9 10 -18 7 -22 -4 -3 -9 2 -13 11 -3 9 -10 14 -14
11 -5 -3 -11 -1 -15 5 -10 16 21 12 35 -5z m-5372 -18 l22 -13 -26 -23 c-20
-17 -25 -19 -21 -7 4 10 1 19 -8 22 -7 3 -11 12 -8 20 6 17 11 17 41 1z m-54
-62 c20 -8 36 -20 36 -25 0 -13 -4 -13 -45 4 -19 8 -35 20 -35 25 0 14 1 14
44 -4z m5526 5 c13 -9 13 -10 0 -10 -8 0 -22 5 -30 10 -13 9 -13 10 0 10 8 0
22 -5 30 -10z m-66 -40 c-6 -5 -24 21 -24 34 0 6 6 1 14 -10 8 -10 12 -21 10
-24z m-1297 19 c21 -8 24 -12 14 -19 -14 -8 -51 8 -51 22 0 10 3 10 37 -3z
m-241 -61 c-10 -27 -15 -35 -16 -21 0 23 20 76 27 69 3 -2 -2 -24 -11 -48z
m641 17 c9 -25 -2 -27 -22 -5 -17 18 -17 20 -1 20 9 0 19 -7 23 -15z m-412
-15 c10 -8 15 -9 15 -1 0 7 8 8 23 2 12 -4 28 -6 36 -3 8 3 12 -1 9 -9 -3 -8
-11 -15 -19 -15 -8 -1 -19 -2 -24 -3 -6 0 -9 -21 -7 -46 3 -37 1 -45 -13 -45
-12 0 -15 5 -10 18 8 19 9 27 7 60 -1 13 -9 22 -18 22 -10 0 -14 -6 -11 -15 4
-8 2 -17 -3 -20 -6 -4 -10 1 -10 10 0 14 -9 16 -50 13 -46 -3 -50 -1 -50 19 0
15 7 23 23 25 42 6 86 1 102 -12z m-192 -96 c34 3 86 8 115 12 33 4 52 2 52
-4 0 -6 -6 -12 -12 -15 -7 -2 -3 -2 10 0 12 2 22 -1 22 -7 0 -5 -4 -10 -10
-10 -19 0 -10 -18 13 -23 19 -5 22 -12 20 -54 -2 -26 -4 -79 -5 -117 l-3 -68
62 -26 c35 -14 62 -27 60 -28 -2 -2 -31 5 -65 15 -35 11 -97 22 -140 25 -42 4
-129 11 -192 17 -63 5 -135 11 -160 13 -83 7 -365 38 -378 42 -7 2 -10 8 -7
14 4 6 13 7 23 1 27 -14 122 -20 115 -7 -3 6 0 5 8 -1 15 -15 79 -18 79 -4 0
5 -9 12 -19 16 -26 8 -36 37 -16 47 8 5 13 13 10 18 -8 13 58 -11 67 -24 5 -7
8 -6 8 4 0 12 3 12 16 -2 9 -9 13 -21 9 -28 -6 -9 -10 -9 -16 1 -7 12 -11 11
-26 -3 -16 -17 -15 -18 30 -18 26 0 47 -5 47 -11 0 -5 5 -7 10 -4 16 10 12 38
-5 31 -22 -8 -19 27 5 49 10 9 26 15 34 12 10 -4 13 -1 9 8 -3 8 2 18 11 21
17 6 46 54 46 74 0 5 -7 10 -15 10 -8 0 -15 5 -15 10 0 14 27 12 34 -2 7 -17
38 22 32 39 -5 13 6 18 17 7 5 -6 -25 -64 -48 -94 -7 -8 -18 -33 -25 -55 -7
-22 -21 -53 -30 -70 -16 -30 -16 -65 0 -65 5 0 7 7 4 15 -3 8 3 27 14 42 10
15 27 45 37 66 9 20 21 37 26 37 5 0 9 8 10 18 0 9 9 31 20 47 10 17 25 44 31
60 l13 30 3 -33 3 -34 62 6z m334 14 c1 -26 -1 -29 -7 -13 -6 17 -3 45 5 45 1
0 2 -15 2 -32z m-527 -68 c0 -5 -4 -10 -10 -10 -5 0 -10 5 -10 10 0 6 5 10 10
10 6 0 10 -4 10 -10z m-2553 -6 c-3 -3 -12 -4 -19 -1 -8 3 -5 6 6 6 11 1 17
-2 13 -5z m66 -11 c-7 -2 -19 -2 -25 0 -7 3 -2 5 12 5 14 0 19 -2 13 -5z
m1214 -69 c-3 -3 -12 -4 -19 -1 -8 3 -5 6 6 6 11 1 17 -2 13 -5z m1012 -58
c-1 -17 -2 -17 -6 -3 -2 9 -9 17 -14 17 -5 0 -9 7 -9 16 0 14 3 14 15 4 8 -7
14 -22 14 -34z m-612 18 c-3 -3 -12 -4 -19 -1 -8 3 -5 6 6 6 11 1 17 -2 13 -5z
m-2718 -17 c-2 -1 -13 -9 -24 -17 -19 -14 -19 -14 -6 3 7 9 18 17 24 17 6 0 8
-1 6 -3z m2978 -3 c-3 -3 -12 -4 -19 -1 -8 3 -5 6 6 6 11 1 17 -2 13 -5z
m-594 -11 c-7 -2 -19 -2 -25 0 -7 3 -2 5 12 5 14 0 19 -2 13 -5z m52 -3 c13
-6 15 -9 5 -9 -8 0 -22 4 -30 9 -18 12 -2 12 25 0z m640 -1 c-5 -6 -55 0 -55
7 0 3 13 3 29 2 16 -1 28 -5 26 -9z m70 1 c4 -6 -7 -10 -27 -9 -31 1 -32 1 -8
9 14 4 26 8 27 9 1 1 5 -3 8 -9z m-642 -7 c-7 -2 -19 -2 -25 0 -7 3 -2 5 12 5
14 0 19 -2 13 -5z m120 -10 c-7 -2 -19 -2 -25 0 -7 3 -2 5 12 5 14 0 19 -2 13
-5z m124 -9 c-3 -3 -12 -4 -19 -1 -8 3 -5 6 6 6 11 1 17 -2 13 -5z m-2809 -31
c2 -15 -19 -41 -74 -92 -88 -80 -143 -111 -199 -111 -37 0 -125 34 -125 48 0
4 14 15 31 25 26 15 37 16 64 6 28 -11 39 -9 80 11 26 13 73 44 104 70 90 75
113 83 119 43z m2972 17 c14 -4 -8 -5 -50 -2 -41 2 -77 6 -79 8 -8 7 104 2
129 -6z m155 -15 c6 -2 -12 -4 -40 -4 -27 0 -56 3 -63 8 -13 8 79 4 103 -4z
m73 -12 c-10 -2 -28 -2 -40 0 -13 2 -5 4 17 4 22 1 32 -1 23 -4z m95 -10 c-13
-2 -33 -2 -45 0 -13 2 -3 4 22 4 25 0 35 -2 23 -4z m206 -19 c9 -8 -65 -2 -84
6 -13 6 -2 7 30 3 28 -3 52 -7 54 -9z m-212 -20 c-3 -3 -12 -4 -19 -1 -8 3 -5
6 6 6 11 1 17 -2 13 -5z m546 -11 c-7 -2 -19 -2 -25 0 -7 3 -2 5 12 5 14 0 19
-2 13 -5z m-3603 -87 c0 -2 -7 -7 -16 -10 -8 -3 -12 -2 -9 4 6 10 25 14 25 6z
m-65 -26 c-11 -5 -29 -9 -40 -9 l-20 0 20 9 c11 5 29 9 40 9 l20 0 -20 -9z m5
-40 c0 -5 -10 -10 -22 -9 -22 0 -22 1 -3 9 11 5 21 9 23 9 1 1 2 -3 2 -9z
m1171 -32 c3 -1 13 3 22 11 22 18 21 3 -2 -34 -19 -31 -178 -198 -170 -180 2
6 28 58 57 117 55 110 54 109 93 86z m-1241 -721 c97 -30 175 -75 158 -92 -4
-4 -40 6 -81 23 -90 38 -194 56 -233 42 -33 -13 -42 -6 -21 17 12 15 30 18 89
16 40 -1 80 -4 88 -6z m5406 -280 c42 -70 44 -87 10 -149 -19 -35 -38 -58 -48
-58 -12 0 -19 -11 -24 -35 -8 -47 -34 -61 -73 -40 -22 11 -32 25 -37 51 -9 48
3 129 28 187 17 40 29 53 62 67 49 21 56 19 82 -23z m-6154 -309 c-7 -7 -12
-8 -12 -2 0 14 12 26 19 19 2 -3 -1 -11 -7 -17z m2545 -14 c-3 -3 -12 -4 -19
-1 -8 3 -5 6 6 6 11 1 17 -2 13 -5z m-2462 -84 c-3 -5 -12 -10 -20 -10 -8 0
-17 5 -20 10 -4 6 5 10 20 10 15 0 24 -4 20 -10z m950 -10 c43 0 56 -9 42 -31
-6 -10 -17 -19 -24 -19 -7 0 -13 -5 -13 -12 0 -6 -3 -8 -7 -5 -3 4 -15 -7 -25
-23 -14 -24 -16 -35 -8 -50 17 -32 -4 -23 -23 10 -19 31 -16 55 11 120 8 19
17 29 19 23 3 -7 15 -13 28 -13z m-686 -34 c9 -7 47 -32 85 -55 39 -22 62 -41
52 -41 -24 0 -115 46 -143 72 -34 32 -28 54 6 24z m1941 -120 c0 -3 -4 -8 -10
-11 -5 -3 -10 -1 -10 4 0 6 5 11 10 11 6 0 10 -2 10 -4z m60 -31 c0 -8 -2 -15
-4 -15 -2 0 -6 7 -10 15 -3 8 -1 15 4 15 6 0 10 -7 10 -15z m80 -45 c0 -5 -5
-10 -11 -10 -5 0 -7 5 -4 10 3 6 8 10 11 10 2 0 4 -4 4 -10z"/>
<path d="M2585 4410 c3 -5 24 -10 46 -10 24 0 38 4 34 10 -3 6 -24 10 -46 10
-24 0 -38 -4 -34 -10z"/>
<path d="M3896 3021 c-4 -7 -5 -15 -2 -18 9 -9 19 4 14 18 -4 11 -6 11 -12 0z"/>
<path d="M4760 2871 c0 -5 13 -23 29 -40 17 -18 33 -42 37 -54 7 -23 64 -94
64 -80 0 4 -14 28 -30 52 -17 24 -30 49 -30 54 0 14 -49 77 -61 77 -5 0 -9 -4
-9 -9z"/>
<path d="M4870 2840 c0 -5 5 -10 10 -10 6 0 10 5 10 10 0 6 -4 10 -10 10 -5 0
-10 -4 -10 -10z"/>
<path d="M4650 2795 c0 -8 4 -15 10 -15 5 0 7 7 4 15 -4 8 -8 15 -10 15 -2 0
-4 -7 -4 -15z"/>
<path d="M4815 2690 c-3 -5 -1 -10 4 -10 6 0 11 5 11 10 0 6 -2 10 -4 10 -3 0
-8 -4 -11 -10z"/>
<path d="M4920 2550 c0 -11 7 -20 15 -20 17 0 18 2 9 24 -9 23 -24 20 -24 -4z"/>
<path d="M4535 2279 c-4 -10 -10 -19 -14 -19 -4 0 -7 -9 -8 -20 -1 -16 4 -20
25 -19 18 1 21 3 9 6 -23 6 -18 39 6 37 21 -2 23 22 3 29 -9 4 -17 -2 -21 -14z"/>
<path d="M4630 2273 c0 -10 4 -14 8 -8 4 6 11 13 16 18 5 4 2 7 -7 7 -10 0
-17 -8 -17 -17z"/>
<path d="M4370 2144 c0 -8 5 -12 10 -9 6 3 10 10 10 16 0 5 -4 9 -10 9 -5 0
-10 -7 -10 -16z"/>
<path d="M6150 670 c0 -23 56 -90 76 -90 11 0 24 21 24 40 0 5 -14 22 -31 39
-36 36 -69 41 -69 11z"/>
<path d="M3466 7525 c25 -19 55 -19 80 0 17 13 14 14 -40 15 -55 0 -58 -1 -40
-15z"/>
<path d="M5915 7393 c-4 -82 -10 -179 -14 -216 -4 -37 -4 -70 0 -73 4 -2 191
-13 416 -24 224 -10 447 -22 496 -25 l87 -7 0 85 0 85 -67 6 c-57 5 -326 16
-394 16 -17 0 -19 6 -14 68 2 37 7 104 10 150 l5 82 -259 0 -259 0 -7 -147z"/>
<path d="M6670 7532 c0 -5 9 -17 20 -27 16 -14 20 -15 20 -4 0 16 -19 39 -32
39 -4 0 -8 -4 -8 -8z"/>
<path d="M6720 7532 c0 -5 9 -17 20 -27 22 -20 26 -14 10 16 -11 19 -30 26
-30 11z"/>
<path d="M6770 7532 c0 -5 7 -16 16 -23 14 -12 16 -11 13 5 -4 20 -29 35 -29
18z"/>
<path d="M6820 7530 c0 -5 5 -10 10 -10 6 0 10 5 10 10 0 6 -4 10 -10 10 -5 0
-10 -4 -10 -10z"/>
<path d="M11 7436 c-15 -18 -8 -46 13 -46 20 0 27 25 12 45 -11 15 -13 15 -25
1z"/>
<path d="M76 7424 c-9 -23 19 -53 35 -37 15 15 7 47 -12 51 -9 2 -19 -5 -23
-14z"/>
<path d="M154 7425 c-9 -21 3 -45 21 -45 21 0 30 27 15 45 -16 19 -29 19 -36
0z"/>
<path d="M230 7410 c0 -24 26 -38 42 -22 8 8 6 15 -5 26 -21 22 -37 20 -37 -4z"/>
<path d="M312 7402 c2 -19 9 -27 23 -27 29 0 29 28 0 42 -25 11 -26 10 -23
-15z"/>
<path d="M1810 7271 c0 -130 3 -161 15 -171 19 -16 34 -5 17 12 -15 15 -17
284 -2 293 16 10 11 21 -10 22 -19 2 -20 -4 -20 -156z"/>
<path d="M386 7411 c-10 -16 5 -41 25 -41 13 0 19 7 19 22 0 12 -3 18 -7 15
-3 -4 -12 -2 -19 4 -8 6 -14 6 -18 0z"/>
<path d="M464 7398 c-9 -13 21 -42 35 -34 6 4 11 13 11 20 0 17 -38 28 -46 14z"/>
<path d="M557 7403 c-24 -6 -17 -38 8 -38 13 0 21 8 23 23 3 22 1 23 -31 15z"/>
<path d="M637 7396 c-21 -16 -22 -32 -1 -40 21 -8 34 1 34 24 0 25 -12 31 -33
16z"/>
<path d="M943 7394 c-7 -12 -8 -26 -3 -34 13 -21 22 -7 18 27 -3 27 -4 27 -15
7z"/>
<path d="M1097 7404 c-10 -11 -9 -54 2 -54 14 0 22 30 13 46 -4 8 -11 11 -15
8z"/>
<path d="M1185 7390 c-7 -21 0 -40 14 -40 11 0 19 31 14 48 -7 18 -21 15 -28
-8z"/>
<path d="M990 7375 c0 -14 5 -25 10 -25 6 0 10 11 10 25 0 14 -4 25 -10 25 -5
0 -10 -11 -10 -25z"/>
<path d="M1036 7366 c3 -9 11 -16 16 -16 13 0 5 23 -10 28 -7 2 -10 -2 -6 -12z"/>
<path d="M1140 7360 c0 -5 5 -10 10 -10 6 0 10 5 10 10 0 6 -4 10 -10 10 -5 0
-10 -4 -10 -10z"/>
<path d="M41 7322 c-11 -20 2 -42 25 -42 18 0 26 30 13 46 -16 19 -26 18 -38
-4z"/>
<path d="M114 7315 c-9 -22 22 -53 37 -38 15 15 7 47 -14 51 -9 2 -20 -4 -23
-13z"/>
<path d="M195 7320 c-10 -16 5 -50 21 -50 20 0 29 27 14 45 -14 17 -26 19 -35
5z"/>
<path d="M273 7305 c-3 -9 2 -24 11 -33 15 -15 18 -15 26 -2 14 22 12 28 -10
40 -16 9 -22 8 -27 -5z"/>
<path d="M350 7290 c0 -25 29 -38 41 -19 6 9 3 18 -8 27 -24 17 -33 15 -33 -8z"/>
<path d="M420 7286 c0 -18 27 -39 40 -31 5 3 10 15 10 26 0 14 -7 19 -25 19
-15 0 -25 -6 -25 -14z"/>
<path d="M502 7278 c4 -30 43 -33 43 -3 0 13 -8 21 -23 23 -20 3 -23 0 -20
-20z"/>
<path d="M593 7293 c-17 -6 -16 -28 1 -42 17 -14 41 11 32 34 -6 15 -12 17
-33 8z"/>
<path d="M1164 7286 c-8 -21 3 -49 16 -41 5 3 10 15 10 25 0 25 -18 36 -26 16z"/>
<path d="M967 7283 c-10 -10 -8 -43 2 -43 9 0 21 24 21 41 0 11 -14 12 -23 2z"/>
<path d="M1060 7267 c0 -27 13 -36 26 -16 3 6 -1 18 -10 27 -15 15 -16 14 -16
-11z"/>
<path d="M1115 7269 c-8 -23 -1 -34 14 -24 13 8 15 45 2 45 -5 0 -13 -9 -16
-21z"/>
<path d="M1010 7255 c0 -9 5 -15 11 -13 6 2 11 8 11 13 0 5 -5 11 -11 13 -6 2
-11 -4 -11 -13z"/>
<path d="M4 7216 c-8 -22 3 -49 19 -43 16 5 16 49 0 54 -7 3 -16 -2 -19 -11z"/>
<path d="M74 7205 c-8 -20 4 -35 27 -35 14 0 19 7 19 25 0 18 -5 25 -20 25
-11 0 -23 -7 -26 -15z"/>
<path d="M155 7210 c-11 -17 5 -51 23 -48 23 4 23 52 0 56 -9 2 -19 -2 -23 -8z"/>
<path d="M234 7196 c-8 -21 3 -36 27 -36 15 0 20 6 17 22 -4 27 -35 37 -44 14z"/>
<path d="M313 7194 c-8 -22 5 -46 24 -42 27 5 29 44 3 51 -13 3 -23 0 -27 -9z"/>
<path d="M390 7175 c0 -18 5 -25 19 -25 24 0 33 13 25 34 -10 27 -44 20 -44
-9z"/>
<path d="M460 7178 c0 -23 18 -41 34 -35 9 4 16 16 16 27 0 15 -7 20 -25 20
-14 0 -25 -6 -25 -12z"/>
<path d="M544 7176 c-8 -21 13 -46 32 -39 20 8 13 47 -9 51 -9 2 -20 -4 -23
-12z"/>
<path d="M624 7175 c-8 -21 3 -45 20 -45 20 0 29 16 21 40 -7 23 -33 27 -41 5z"/>
<path d="M936 7175 c-6 -18 2 -45 15 -45 12 0 12 47 0 54 -5 3 -11 -1 -15 -9z"/>
<path d="M990 7162 c0 -34 14 -43 24 -15 4 9 0 23 -9 32 -13 14 -15 12 -15
-17z"/>
<path d="M1090 7160 c0 -33 15 -41 22 -12 6 21 -1 42 -13 42 -5 0 -9 -13 -9
-30z"/>
<path d="M1192 7166 c2 -15 8 -26 13 -26 15 0 12 43 -3 48 -10 3 -13 -4 -10
-22z"/>
<path d="M1040 7151 c0 -12 5 -21 10 -21 6 0 10 6 10 14 0 8 -4 18 -10 21 -5
3 -10 -3 -10 -14z"/>
<path d="M1145 7159 c-4 -6 -3 -15 3 -21 6 -6 11 -4 15 6 7 18 -9 31 -18 15z"/>
<path d="M40 7105 c-16 -19 -5 -47 17 -43 11 2 18 12 18 27 0 29 -17 37 -35
16z"/>
<path d="M114 7095 c-9 -22 22 -53 37 -38 15 15 7 47 -14 51 -9 2 -20 -4 -23
-13z"/>
<path d="M194 7096 c-9 -24 4 -48 23 -44 24 4 24 52 0 56 -9 2 -20 -4 -23 -12z"/>
<path d="M274 7085 c-9 -22 22 -53 37 -38 15 15 7 47 -14 51 -9 2 -20 -4 -23
-13z"/>
<path d="M354 7085 c-9 -23 4 -47 23 -43 26 5 28 35 3 48 -16 9 -21 8 -26 -5z"/>
<path d="M430 7066 c0 -29 10 -38 29 -27 18 11 10 45 -12 49 -12 3 -17 -3 -17
-22z"/>
<path d="M511 7076 c-15 -18 -3 -48 18 -44 21 4 27 44 7 51 -8 3 -19 0 -25 -7z"/>
<path d="M583 7064 c-3 -8 1 -22 9 -30 13 -13 16 -13 27 0 7 9 11 23 7 31 -7
20 -35 19 -43 -1z"/>
<path d="M967 7073 c-4 -3 -7 -17 -7 -30 0 -28 23 -27 28 1 4 20 -11 40 -21
29z"/>
<path d="M1116 7064 c-10 -25 -7 -34 9 -34 9 0 15 9 15 25 0 28 -15 34 -24 9z"/>
<path d="M1167 7073 c-13 -12 -7 -43 8 -43 9 0 15 9 15 25 0 24 -10 32 -23 18z"/>
<path d="M1062 7049 c1 -13 8 -23 13 -21 15 3 12 35 -3 40 -9 3 -13 -3 -10
-19z"/>
<path d="M1010 7039 c0 -24 23 -21 28 4 2 10 -3 17 -12 17 -10 0 -16 -9 -16
-21z"/>
<path d="M2 6983 c4 -36 33 -39 33 -3 0 16 -6 26 -18 28 -15 3 -18 -2 -15 -25z"/>
<path d="M80 6995 c-17 -20 -6 -45 20 -45 17 0 21 5 18 27 -4 31 -20 40 -38
18z"/>
<path d="M154 6985 c-9 -22 22 -53 37 -38 15 15 7 47 -14 51 -9 2 -20 -4 -23
-13z"/>
<path d="M242 6991 c-19 -11 -11 -45 11 -49 9 -2 20 4 23 13 9 21 -16 47 -34
36z"/>
<path d="M314 6975 c-8 -21 2 -45 20 -45 17 0 28 24 20 45 -4 8 -13 15 -20 15
-8 0 -17 -7 -20 -15z"/>
<path d="M397 6983 c-4 -3 -7 -17 -7 -30 0 -16 6 -23 19 -23 25 0 34 26 15 45
-18 17 -18 17 -27 8z"/>
<path d="M464 6966 c-8 -21 13 -46 32 -39 20 8 13 47 -9 51 -9 2 -20 -4 -23
-12z"/>
<path d="M553 6973 c-15 -5 -17 -39 -4 -47 14 -9 41 4 41 19 0 17 -22 33 -37
28z"/>
<path d="M1184 6955 c-3 -14 -4 -28 -1 -31 10 -10 27 7 27 26 0 30 -19 33 -26
5z"/>
<path d="M627 6963 c-10 -9 -9 -41 2 -47 4 -3 16 1 27 8 15 12 16 16 5 30 -15
17 -24 20 -34 9z"/>
<path d="M937 6963 c-10 -10 -8 -53 2 -53 14 0 25 40 14 51 -5 5 -12 6 -16 2z"/>
<path d="M1080 6944 c0 -31 23 -28 28 4 2 15 -2 22 -12 22 -11 0 -16 -9 -16
-26z"/>
<path d="M984 6945 c-8 -21 6 -41 17 -24 12 19 11 39 -1 39 -6 0 -13 -7 -16
-15z"/>
<path d="M1030 6939 c0 -12 5 -19 12 -17 18 6 20 25 3 31 -10 5 -15 0 -15 -14z"/>
<path d="M1141 6946 c-8 -9 -11 -19 -7 -23 9 -9 29 13 24 27 -2 8 -8 7 -17 -4z"/>
<path d="M34 6886 c-9 -24 4 -48 23 -44 12 2 18 12 18 28 0 29 -32 41 -41 16z"/>
<path d="M112 6868 c2 -15 11 -24 26 -26 20 -3 23 0 20 20 -2 15 -11 24 -26
26 -20 3 -23 0 -20 -20z"/>
<path d="M194 6876 c-9 -24 4 -48 23 -44 24 4 24 52 0 56 -9 2 -20 -4 -23 -12z"/>
<path d="M270 6855 c0 -22 4 -26 23 -23 14 2 22 10 22 23 0 13 -8 21 -22 23
-19 3 -23 -1 -23 -23z"/>
<path d="M354 6866 c-9 -22 2 -46 21 -46 12 0 15 8 13 27 -3 30 -25 42 -34 19z"/>
<path d="M424 6856 c-8 -21 3 -36 27 -36 15 0 20 6 17 22 -4 27 -35 37 -44 14z"/>
<path d="M504 6855 c-9 -21 3 -45 21 -45 21 0 30 27 15 45 -16 19 -29 19 -36
0z"/>
<path d="M1152 6846 c2 -15 8 -26 13 -26 15 0 12 43 -3 48 -10 3 -13 -4 -10
-22z"/>
<path d="M6688 6863 c17 -2 47 -2 65 0 17 2 3 4 -33 4 -36 0 -50 -2 -32 -4z"/>
<path d="M580 6836 c0 -20 5 -26 21 -26 15 0 20 5 17 22 -5 34 -38 37 -38 4z"/>
<path d="M954 6846 c-8 -21 3 -49 16 -41 5 3 10 15 10 25 0 25 -18 36 -26 16z"/>
<path d="M1050 6835 c0 -17 5 -25 13 -22 6 2 12 12 12 22 0 10 -6 20 -12 23
-8 2 -13 -6 -13 -23z"/>
<path d="M1107 6853 c-4 -3 -7 -15 -7 -25 0 -26 24 -17 28 10 3 21 -8 29 -21
15z"/>
<path d="M1000 6829 c0 -24 23 -21 28 4 2 10 -3 17 -12 17 -10 0 -16 -9 -16
-21z"/>
<path d="M0 6766 c0 -14 4 -27 9 -30 13 -9 32 19 25 38 -10 25 -34 19 -34 -8z"/>
<path d="M74 6775 c-9 -21 3 -45 21 -45 21 0 30 27 15 45 -16 19 -29 19 -36 0z"/>
<path d="M157 6774 c-4 -4 -7 -16 -7 -26 0 -14 6 -19 23 -16 14 2 22 10 22 23
0 20 -25 32 -38 19z"/>
<path d="M234 6765 c-8 -21 2 -45 20 -45 19 0 29 29 15 46 -15 18 -28 18 -35
-1z"/>
<path d="M310 6746 c0 -27 28 -43 36 -21 9 21 -3 45 -21 45 -9 0 -15 -9 -15
-24z"/>
<path d="M391 6756 c-16 -19 -7 -46 14 -46 22 0 30 29 13 46 -13 13 -16 13
-27 0z"/>
<path d="M467 6753 c-13 -12 -7 -41 8 -47 18 -6 30 16 21 39 -6 16 -18 19 -29
8z"/>
<path d="M1074 6746 c-8 -21 3 -49 16 -41 5 3 10 15 10 25 0 25 -18 36 -26 16z"/>
<path d="M1125 6750 c-9 -14 4 -52 16 -45 12 8 12 55 0 55 -6 0 -13 -5 -16
-10z"/>
<path d="M1177 6753 c-13 -12 -7 -43 8 -43 9 0 15 9 15 25 0 24 -10 32 -23 18z"/>
<path d="M536 6741 c-10 -16 5 -42 23 -39 21 4 21 42 -1 46 -9 2 -19 -1 -22
-7z"/>
<path d="M613 6734 c-3 -8 1 -22 9 -30 13 -13 16 -13 28 0 10 13 10 19 0 31
-16 19 -29 19 -37 -1z"/>
<path d="M930 6726 c0 -14 4 -27 9 -30 10 -7 20 23 14 42 -8 21 -23 13 -23
-12z"/>
<path d="M978 6738 c-6 -17 1 -38 13 -38 5 0 9 11 9 25 0 26 -14 34 -22 13z"/>
<path d="M1024 6735 c-3 -8 -3 -19 1 -25 11 -18 25 -11 25 15 0 27 -17 34 -26
10z"/>
<path d="M6038 6734 c-17 -17 -4 -19 89 -16 l97 3 -32 -29 c-18 -17 -32 -37
-32 -45 0 -34 20 -64 48 -76 90 -38 142 85 54 127 l-35 17 39 6 c33 5 29 6
-26 8 -36 0 -94 4 -130 7 -36 3 -68 3 -72 -2z"/>
<path d="M6338 6713 c17 -2 47 -2 65 0 17 2 3 4 -33 4 -36 0 -50 -2 -32 -4z"/>
<path d="M6510 6701 c14 -5 52 -9 85 -10 56 -1 58 -2 38 -16 -47 -33 -35 -111
21 -136 31 -15 83 12 92 46 7 29 -11 81 -35 96 -13 8 -11 9 9 5 14 -3 51 -6
83 -6 59 0 69 -9 42 -36 -25 -25 -19 -79 11 -103 15 -12 31 -21 35 -21 5 0 9
38 9 84 l0 83 -86 7 c-162 12 -330 16 -304 7z"/>
<path d="M6405 6675 c-30 -30 -32 -64 -4 -99 41 -52 129 -19 129 49 0 30 -47
75 -77 75 -13 0 -35 -11 -48 -25z"/>
<path d="M26 6671 c-10 -16 5 -41 24 -41 23 0 32 13 24 34 -7 17 -39 22 -48 7z"/>
<path d="M111 6666 c-9 -11 -8 -18 4 -30 9 -9 21 -16 26 -16 16 0 22 29 9 45
-15 19 -24 19 -39 1z"/>
<path d="M190 6652 c0 -18 18 -42 31 -42 11 0 19 29 13 45 -9 22 -44 19 -44
-3z"/>
<path d="M267 6654 c-10 -10 12 -44 28 -44 9 0 15 10 15 25 0 18 -5 25 -18 25
-10 0 -22 -3 -25 -6z"/>
<path d="M345 6650 c-9 -15 4 -50 20 -50 16 0 29 35 20 50 -3 5 -12 10 -20 10
-8 0 -17 -5 -20 -10z"/>
<path d="M423 6634 c-7 -18 11 -39 26 -30 17 11 13 46 -4 46 -9 0 -18 -7 -22
-16z"/>
<path d="M501 6636 c-11 -14 -5 -46 9 -46 15 0 32 30 26 45 -7 19 -20 19 -35
1z"/>
<path d="M1104 6636 c-8 -21 3 -49 16 -41 5 3 10 15 10 25 0 25 -18 36 -26 16z"/>
<path d="M1150 6625 c0 -14 4 -25 9 -25 12 0 23 29 15 41 -10 18 -24 9 -24
-16z"/>
<path d="M577 6633 c-11 -10 -8 -43 4 -43 16 0 41 29 34 40 -7 11 -28 13 -38
3z"/>
<path d="M954 6625 c-8 -20 3 -48 16 -40 13 8 13 55 0 55 -6 0 -13 -7 -16 -15z"/>
<path d="M1004 6625 c-3 -8 -3 -19 1 -25 11 -18 25 -11 25 15 0 27 -17 34 -26
10z"/>
<path d="M1052 6618 c2 -13 8 -23 13 -23 6 0 11 10 13 23 2 15 -2 22 -13 22
-11 0 -15 -7 -13 -22z"/>
<path d="M0 6549 c0 -20 4 -29 12 -27 19 7 21 45 4 51 -12 5 -16 -1 -16 -24z"/>
<path d="M65 6560 c-8 -13 13 -40 30 -40 18 0 26 25 12 39 -14 14 -34 14 -42
1z"/>
<path d="M152 6538 c5 -34 38 -37 38 -4 0 20 -5 26 -21 26 -15 0 -20 -5 -17
-22z"/>
<path d="M233 6539 c4 -13 7 -27 7 -31 0 -5 7 -8 16 -8 23 0 14 54 -10 58 -15
3 -18 0 -13 -19z"/>
<path d="M2752 6530 c0 -19 2 -27 5 -17 2 9 2 25 0 35 -3 9 -5 1 -5 -18z"/>
<path d="M307 6543 c-7 -12 11 -53 22 -53 12 0 24 37 16 50 -7 12 -32 13 -38
3z"/>
<path d="M384 6536 c-8 -22 3 -49 19 -43 6 2 12 14 12 27 0 27 -22 39 -31 16z"/>
<path d="M457 6526 c-6 -15 18 -55 27 -45 3 3 7 16 8 29 3 27 -26 41 -35 16z"/>
<path d="M533 6514 c-8 -22 15 -43 27 -24 5 8 10 21 10 28 0 17 -30 15 -37 -4z"/>
<path d="M614 6515 c-4 -8 -3 -23 1 -32 6 -15 8 -16 13 -3 3 8 9 18 15 21 11
8 1 29 -14 29 -5 0 -12 -7 -15 -15z"/>
<path d="M924 6515 c-3 -8 -3 -19 1 -25 11 -18 25 -11 25 15 0 27 -17 34 -26
10z"/>
<path d="M976 6515 c-3 -9 0 -15 9 -15 8 0 15 7 15 15 0 8 -4 15 -9 15 -5 0
-11 -7 -15 -15z"/>
<path d="M6021 6514 c0 -11 3 -14 6 -6 3 7 2 16 -1 19 -3 4 -6 -2 -5 -13z"/>
<path d="M30 6455 c-15 -18 -5 -35 21 -35 12 0 19 7 19 19 0 24 -25 34 -40 16z"/>
<path d="M5862 6440 c0 -19 2 -27 5 -17 2 9 2 25 0 35 -3 9 -5 1 -5 -18z"/>
<path d="M105 6450 c-11 -17 5 -51 23 -48 23 4 23 52 0 56 -9 2 -19 -2 -23 -8z"/>
<path d="M184 6435 c-9 -22 22 -53 37 -38 15 15 7 47 -14 51 -9 2 -20 -4 -23
-13z"/>
<path d="M264 6435 c-9 -21 3 -45 21 -45 21 0 30 27 15 45 -16 19 -29 19 -36
0z"/>
<path d="M344 6425 c-8 -21 2 -45 20 -45 15 0 25 27 19 48 -6 17 -32 15 -39
-3z"/>
<path d="M2751 6424 c0 -11 3 -14 6 -6 3 7 2 16 -1 19 -3 4 -6 -2 -5 -13z"/>
<path d="M420 6405 c0 -28 24 -34 34 -9 10 26 7 34 -14 34 -15 0 -20 -7 -20
-25z"/>
<path d="M495 6420 c-7 -12 3 -50 13 -50 12 0 33 40 27 50 -8 13 -32 13 -40 0z"/>
<path d="M6279 6409 c-29 -29 -23 -85 14 -112 l27 -21 40 39 c47 46 49 57 15
90 -29 30 -68 32 -96 4z"/>
<path d="M0 6329 c0 -28 1 -29 16 -14 9 8 13 22 10 30 -10 26 -26 16 -26 -16z"/>
<path d="M2388 6173 c23 -2 59 -2 80 0 20 2 1 4 -43 4 -44 0 -61 -2 -37 -4z"/>
<path d="M5844 6060 c0 -52 1 -74 3 -47 2 26 2 68 0 95 -2 26 -3 4 -3 -48z"/>
<path d="M0 6115 c0 -14 5 -25 10 -25 6 0 10 11 10 25 0 14 -4 25 -10 25 -5 0
-10 -11 -10 -25z"/>
<path d="M5833 5860 c0 -30 2 -43 4 -27 2 15 2 39 0 55 -2 15 -4 2 -4 -28z"/>
<path d="M6241 5864 c-40 -51 -20 -89 51 -97 59 -6 72 3 72 49 0 69 -81 101
-123 48z"/>
<path d="M6460 5850 c-23 -23 -27 -72 -7 -88 20 -17 117 -18 128 -1 42 67 -64
146 -121 89z"/>
<path d="M6684 5835 c-30 -30 -30 -78 0 -83 25 -5 33 6 40 61 8 54 -2 60 -40
22z"/>
<path d="M5828 5799 c-5 -14 -22 -429 -17 -429 6 0 29 422 23 429 -2 2 -5 2
-6 0z"/>
<path d="M6120 5610 c-44 -44 -8 -120 57 -120 41 0 63 23 63 66 0 43 -30 74
-70 74 -17 0 -39 -9 -50 -20z"/>
<path d="M6337 5592 c-23 -25 -21 -78 3 -102 26 -26 81 -26 103 -2 23 25 21
78 -3 102 -26 26 -81 26 -103 2z"/>
<path d="M6556 5568 c-36 -51 -2 -118 61 -118 59 0 91 62 56 108 -28 38 -94
43 -117 10z"/>
<path d="M6237 5352 c-20 -4 -47 -51 -47 -81 0 -26 46 -61 79 -61 56 0 91 69
59 113 -15 19 -64 35 -91 29z"/>
<path d="M6463 5329 c-12 -4 -29 -19 -39 -34 -42 -64 61 -140 116 -85 51 51
-9 145 -77 119z"/>
<path d="M6645 5280 c-16 -32 -12 -72 10 -90 9 -8 14 -2 19 27 14 90 1 120
-29 63z"/>
<path d="M7 5203 c7 -2 19 -2 26 0 6 3 1 5 -13 5 -14 0 -19 -2 -13 -5z"/>
<path d="M6096 5079 c-51 -40 -20 -119 48 -119 41 0 66 26 66 68 0 33 -38 72
-70 72 -10 0 -29 -9 -44 -21z"/>
<path d="M6334 5069 c-54 -20 -62 -83 -16 -120 60 -47 139 23 102 91 -13 23
-59 39 -86 29z"/>
<path d="M6521 5024 c-52 -66 36 -148 107 -98 29 20 30 76 2 104 -30 30 -83
27 -109 -6z"/>
<path d="M83 4983 c9 -2 25 -2 35 0 9 3 1 5 -18 5 -19 0 -27 -2 -17 -5z"/>
<path d="M6180 4800 c-27 -27 -25 -63 3 -96 40 -46 127 -27 127 28 0 71 -84
114 -130 68z"/>
<path d="M6415 4788 c-27 -16 -35 -28 -35 -61 0 -65 99 -105 134 -55 22 31 20
63 -6 92 -27 30 -66 40 -93 24z"/>
<path d="M6618 4753 c-22 -24 -23 -72 -4 -99 21 -28 27 -14 24 56 -3 60 -4 62
-20 43z"/>
<path d="M6060 4543 c-26 -33 -20 -68 16 -100 33 -30 78 -30 98 -1 25 36 20
73 -15 102 -40 34 -72 33 -99 -1z"/>
<path d="M6310 4543 c-81 -30 -57 -143 30 -145 54 -2 86 53 60 103 -9 15 -61
51 -72 48 -2 0 -10 -3 -18 -6z"/>
<path d="M6502 4504 c-26 -18 -30 -68 -7 -101 18 -26 75 -39 103 -24 10 6 22
24 25 41 15 73 -61 126 -121 84z"/>
<path d="M6382 4254 c-33 -23 -30 -78 7 -115 36 -35 64 -37 96 -4 69 68 -23
175 -103 119z"/>
<path d="M6584 4206 c-8 -34 -1 -79 14 -84 8 -3 12 12 12 52 0 57 -15 75 -26
32z"/>
<path d="M2557 4024 c-8 -8 1 -24 14 -24 5 0 9 7 9 15 0 15 -12 20 -23 9z"/>
<path d="M2478 4013 c6 -2 18 -2 25 0 6 3 1 5 -13 5 -14 0 -19 -2 -12 -5z"/>
<path d="M2458 3896 c-3 -14 0 -27 7 -29 20 -8 63 4 69 20 9 23 -2 33 -38 33
-28 0 -35 -4 -38 -24z"/>
<path d="M2594 3855 c3 -8 1 -15 -4 -15 -5 0 -6 -16 -3 -35 4 -28 2 -35 -11
-35 -20 0 -21 -14 -1 -30 22 -18 27 -9 32 64 4 49 2 66 -7 66 -7 0 -10 -7 -6
-15z"/>
<path d="M2500 3668 c0 -8 7 -15 15 -15 18 0 15 19 -3 25 -7 2 -12 -3 -12 -10z"/>
<path d="M2670 3650 c0 -6 12 -10 27 -10 29 0 24 12 -7 17 -11 2 -20 -2 -20
-7z"/>
<path d="M2718 3563 c7 -3 16 -2 19 1 4 3 -2 6 -13 5 -11 0 -14 -3 -6 -6z"/>
<path d="M2130 3468 c0 -8 13 -33 28 -54 32 -43 138 -144 153 -144 5 0 9 13 9
29 0 43 -11 91 -22 91 -5 0 -6 -4 -3 -10 3 -5 1 -10 -4 -10 -6 0 -11 4 -11 9
0 4 -20 19 -45 32 -25 13 -45 27 -45 31 0 5 -5 8 -12 8 -6 0 -20 7 -30 17 -15
14 -18 14 -18 1z"/>
<path d="M2401 3407 c-9 -12 -8 -16 5 -21 13 -5 14 -9 5 -20 -15 -17 -1 -28
19 -15 8 5 36 9 62 9 82 0 75 32 -10 45 -24 4 -50 9 -57 11 -6 3 -17 -2 -24
-9z"/>
<path d="M2635 3390 c-3 -5 -17 -10 -29 -10 -13 0 -30 -8 -37 -17 -7 -10 -9
-15 -5 -11 5 4 15 3 23 -3 9 -9 13 -8 13 0 0 6 11 16 25 21 14 5 25 14 25 20
0 13 -7 13 -15 0z"/>
<path d="M2640 3350 c0 -5 9 -10 21 -10 11 0 17 5 14 10 -3 6 -13 10 -21 10
-8 0 -14 -4 -14 -10z"/>
<path d="M2720 3343 c0 -7 -7 -13 -17 -13 -9 0 -14 -3 -10 -6 6 -6 77 14 90
25 4 4 -9 7 -28 7 -22 0 -35 -5 -35 -13z"/>
<path d="M2412 3332 c-20 -13 21 -44 65 -49 21 -2 45 -6 53 -10 96 -39 202
-66 126 -32 l-26 12 37 13 c21 7 48 10 62 7 17 -4 22 -2 17 6 -4 6 -1 11 8 11
9 0 16 5 16 10 0 13 -23 13 -54 -1 -21 -10 -42 -7 -119 15 -93 26 -161 33
-185 18z"/>
<path d="M2440 3260 c-20 -3 -30 -8 -23 -13 6 -4 9 -15 6 -25 -3 -12 4 -22 22
-30 31 -14 55 -15 55 -3 0 5 16 15 35 21 19 6 35 16 35 21 0 12 -36 12 -59 -1
-11 -5 -30 -6 -47 0 -27 8 -26 8 14 9 24 1 41 5 38 10 -8 13 -37 17 -76 11z"/>
<path d="M2790 3206 c0 -8 4 -17 9 -21 6 -3 9 4 8 15 -1 23 -17 28 -17 6z"/>
<path d="M3281 3204 c0 -11 3 -14 6 -6 3 7 2 16 -1 19 -3 4 -6 -2 -5 -13z"/>
<path d="M2394 3170 c0 -15 7 -20 26 -20 14 0 42 -5 63 -11 20 -5 43 -6 50 -2
11 7 -51 23 -95 24 -10 0 -18 7 -18 15 0 8 -6 14 -13 14 -7 0 -13 -9 -13 -20z"/>
<path d="M2515 3180 c3 -5 13 -10 21 -10 8 0 14 5 14 10 0 6 -9 10 -21 10 -11
0 -17 -4 -14 -10z"/>
<path d="M2410 3100 c-9 -6 -10 -10 -3 -10 6 0 15 5 18 10 8 12 4 12 -15 0z"/>
<path d="M2480 3090 c0 -8 -9 -10 -23 -7 -12 4 -28 2 -35 -2 -10 -6 -4 -10 18
-15 44 -8 52 -8 46 3 -4 5 -1 11 6 13 9 3 9 6 0 12 -7 4 -12 2 -12 -4z"/>
<path d="M2545 3080 c-3 -5 -12 -7 -20 -3 -8 3 -15 0 -15 -6 0 -8 14 -9 43 -5
60 9 81 23 35 24 -20 0 -39 -4 -43 -10z"/>
<path d="M2443 3033 c10 -16 97 -27 110 -14 8 8 2 11 -20 11 -17 0 -45 3 -63
7 -22 4 -31 3 -27 -4z"/>
<path d="M2405 2998 c10 -25 78 -36 180 -28 23 2 -2 6 -58 10 -53 4 -104 13
-112 20 -13 11 -14 10 -10 -2z"/>
<path d="M2465 2929 c-9 -14 4 -27 13 -13 4 6 14 14 22 17 10 4 8 6 -7 6 -12
1 -25 -4 -28 -10z"/>
<path d="M2520 2920 c0 -6 7 -10 15 -10 8 0 15 2 15 4 0 2 -7 6 -15 10 -8 3
-15 1 -15 -4z"/>
<path d="M2546 2885 c4 -8 10 -12 15 -9 11 6 2 24 -11 24 -5 0 -7 -7 -4 -15z"/>
<path d="M2820 2830 c0 -5 5 -10 10 -10 6 0 10 5 10 10 0 6 -4 10 -10 10 -5 0
-10 -4 -10 -10z"/>
<path d="M2480 2805 c7 -8 17 -15 22 -15 6 0 5 7 -2 15 -7 8 -17 15 -22 15 -6
0 -5 -7 2 -15z"/>
<path d="M2460 2782 c0 -13 -7 -25 -15 -28 -19 -8 -77 15 -69 27 3 5 -4 9 -15
9 -26 0 -33 -13 -18 -32 17 -22 91 -48 107 -38 7 4 20 6 28 3 11 -5 13 1 7 28
-9 42 -25 62 -25 31z"/>
<path d="M2610 2784 c0 -17 29 -71 46 -85 11 -9 18 -9 26 -1 9 9 8 12 -3 12
-8 0 -27 19 -42 42 -15 23 -27 37 -27 32z"/>
<path d="M2798 2752 c-32 -38 -44 -70 -31 -83 14 -14 65 64 61 92 -3 22 -4 22
-30 -9z"/>
<path d="M2546 2697 c3 -10 9 -15 12 -12 3 3 0 11 -7 18 -10 9 -11 8 -5 -6z"/>
<path d="M2340 2666 c0 -9 -8 -24 -18 -34 -29 -29 -34 -51 -12 -49 10 1 17 4
14 9 -2 4 4 11 13 17 20 10 29 56 13 66 -6 3 -10 -1 -10 -9z"/>
<path d="M2516 2632 c-2 -4 -31 -7 -64 -6 -75 1 -105 -21 -119 -90 -2 -12 1
-17 11 -13 10 4 12 0 8 -15 -2 -11 -11 -22 -18 -25 -15 -6 -19 -33 -5 -33 5 0
11 -10 15 -23 7 -30 46 -50 63 -32 15 17 -4 95 -23 95 -8 0 -14 5 -14 11 0 6
7 8 16 5 23 -9 45 19 51 64 6 42 25 53 39 23 4 -10 8 -21 8 -25 1 -5 4 -8 9
-8 4 0 13 0 21 0 8 0 22 8 32 18 17 16 17 16 12 -3 -3 -11 -9 -28 -13 -37 -12
-30 9 -20 27 12 20 35 34 38 43 11 3 -11 14 -19 25 -18 13 1 16 5 10 16 -5 10
-2 20 8 28 14 11 5 13 -58 11 -72 -3 -75 -2 -73 20 3 22 -2 28 -11 14z"/>
<path d="M616 2564 c-8 -21 -6 -23 17 -15 17 6 17 9 4 19 -12 10 -16 9 -21 -4z"/>
<path d="M100 2553 c-14 -2 -42 -11 -62 -20 -38 -16 -38 -17 -38 -74 l0 -58
42 -6 c24 -3 106 -11 182 -18 l139 -13 59 51 58 50 -64 7 c-35 4 -104 22 -153
38 -123 43 -135 46 -163 43z"/>
<path d="M555 2467 c5 -16 4 -18 -3 -8 -5 7 -15 10 -21 7 -15 -9 -14 -39 1
-54 18 -18 40 -15 35 6 -2 9 2 28 9 42 11 23 10 26 -7 27 -16 2 -19 -3 -14
-20z"/>
<path d="M462 2420 c-22 -18 -22 -20 -6 -45 14 -22 101 -71 110 -62 8 7 -59
87 -72 87 -19 0 -18 10 4 26 14 11 14 13 2 13 -8 0 -25 -8 -38 -19z"/>
<path d="M0 2370 c0 -5 6 -10 13 -10 6 0 79 -7 160 -16 109 -12 152 -13 160
-5 8 8 4 11 -13 11 -14 0 -88 7 -165 15 -166 18 -155 17 -155 5z"/>
<path d="M399 2364 c-11 -14 -10 -16 9 -12 13 1 23 7 23 13 1 17 -17 16 -32
-1z"/>
<path d="M570 2360 c6 -11 13 -20 16 -20 2 0 0 9 -6 20 -6 11 -13 20 -16 20
-2 0 0 -9 6 -20z"/>
<path d="M2387 2369 c-21 -12 -13 -29 14 -29 12 0 19 7 19 20 0 22 -7 24 -33
9z"/>
<path d="M306 2205 c32 -38 93 -75 124 -75 5 0 -10 27 -32 60 -40 58 -43 60
-85 60 l-44 0 37 -45z"/>
<path d="M0 2210 c0 -30 1 -30 58 -32 31 -1 74 -2 94 -1 31 1 38 -2 45 -23 6
-19 23 -31 63 -45 97 -35 90 -35 78 -1 -12 30 -56 52 -107 52 -23 0 -29 15 -8
23 7 3 26 2 43 0 l29 -6 -19 22 c-11 12 -26 19 -34 16 -7 -2 -52 2 -99 10 -47
8 -99 15 -114 15 -26 0 -29 -4 -29 -30z"/>
<path d="M131 2141 l-25 -19 27 -35 c26 -34 87 -66 87 -46 0 27 -34 59 -64 60
l-31 0 23 16 c21 15 31 43 15 43 -5 0 -19 -9 -32 -19z"/>
<path d="M58 2089 c-29 -16 -21 -29 17 -29 37 0 43 8 23 28 -14 14 -18 14 -40
1z"/>
<path d="M115 2014 c26 -24 30 -25 33 -10 5 22 4 23 -33 31 l-30 6 30 -27z"/>
<path d="M2885 2020 c-4 -6 -11 -8 -16 -5 -5 4 -9 1 -9 -4 0 -6 11 -11 24 -11
13 0 36 -7 52 -14 35 -19 52 -9 28 14 -23 22 -71 34 -79 20z"/>
<path d="M2890 1965 c-10 -12 -10 -15 3 -15 8 0 17 7 21 15 3 8 2 15 -3 15 -5
0 -14 -7 -21 -15z"/>
<path d="M3069 1947 c-8 -7 -25 -19 -37 -26 -15 -8 -21 -18 -18 -29 23 -71 27
-239 15 -577 -11 -321 -30 -848 -38 -1095 -4 -118 -6 -217 -4 -220 2 -2 8 2
13 10 7 12 24 12 111 1 95 -11 104 -11 116 5 18 25 20 54 43 649 20 506 27
680 46 1116 l6 156 -78 7 c-44 4 -97 9 -120 12 -28 4 -45 1 -55 -9z"/>
<path d="M271 1614 c10 -13 10 -17 -2 -25 -10 -6 -10 -9 -1 -9 6 0 21 -9 32
-20 l20 -20 0 23 c-1 25 -32 67 -50 67 -9 0 -9 -4 1 -16z"/>
<path d="M85 1610 c3 -5 13 -10 21 -10 8 0 14 5 14 10 0 6 -9 10 -21 10 -11 0
-17 -4 -14 -10z"/>
<path d="M196 1595 c-3 -8 -24 -18 -47 -21 -32 -6 -38 -9 -25 -16 18 -10 82
-3 106 12 11 7 11 11 1 24 -17 20 -27 20 -35 1z"/>
<path d="M270 1425 c7 -8 18 -15 25 -15 7 0 18 7 25 15 11 13 7 15 -25 15 -32
0 -36 -2 -25 -15z"/>
<path d="M374 1425 c16 -9 37 -13 45 -9 13 5 11 8 -9 14 -14 5 -34 8 -45 9
-15 1 -13 -3 9 -14z"/>
<path d="M178 1423 c-21 -5 -23 -19 -4 -26 7 -3 20 3 29 14 17 19 12 22 -25
12z"/>
<path d="M495 1400 c3 -5 15 -10 26 -10 11 0 17 5 14 10 -3 6 -15 10 -26 10
-11 0 -17 -4 -14 -10z"/>
<path d="M62 1381 c-11 -7 -11 -9 1 -14 16 -6 27 0 27 15 0 10 -11 10 -28 -1z"/>
<path d="M3380 750 c0 -5 5 -10 10 -10 6 0 10 5 10 10 0 6 -4 10 -10 10 -5 0
-10 -4 -10 -10z"/>
<path d="M3335 330 c3 -5 8 -10 11 -10 2 0 4 5 4 10 0 6 -5 10 -11 10 -5 0 -7
-4 -4 -10z"/>
<path d="M2665 190 c-3 -5 1 -10 9 -10 9 0 16 5 16 10 0 6 -4 10 -9 10 -6 0
-13 -4 -16 -10z"/>
</g>
</svg>
