<?xml version="1.0" encoding="UTF-8"?>
<svg xmlns="http://www.w3.org/2000/svg" xmlns:xlink="http://www.w3.org/1999/xlink" width="25px" height="25px" viewBox="0 0 25 25" version="1.1">
<g id="surface1">
<path style=" stroke:none;fill-rule:nonzero;fill:rgb(0%,0%,0%);fill-opacity:1;" d="M 15.332031 5.511719 C 15.347656 5.515625 15.367188 5.523438 15.382812 5.53125 C 16.175781 5.863281 16.910156 6.3125 17.535156 6.902344 C 17.59375 6.957031 17.652344 7.007812 17.710938 7.058594 C 17.882812 7.210938 18.039062 7.375 18.1875 7.550781 C 18.199219 7.566406 18.210938 7.578125 18.222656 7.59375 C 18.546875 7.976562 18.835938 8.386719 19.082031 8.828125 C 19.089844 8.84375 19.101562 8.863281 19.113281 8.878906 C 19.304688 9.222656 19.453125 9.582031 19.59375 9.949219 C 19.597656 9.96875 19.605469 9.992188 19.617188 10.011719 C 19.792969 10.5 19.910156 11.015625 19.972656 11.53125 C 19.976562 11.550781 19.980469 11.570312 19.984375 11.59375 C 20.09375 12.488281 20.039062 13.410156 19.820312 14.285156 C 19.8125 14.324219 19.8125 14.324219 19.800781 14.363281 C 19.667969 14.90625 19.472656 15.425781 19.210938 15.921875 C 19.183594 15.972656 19.15625 16.023438 19.128906 16.078125 C 18.65625 17 17.9375 17.835938 17.113281 18.460938 C 17.082031 18.484375 17.050781 18.507812 17.023438 18.53125 C 16.753906 18.738281 16.46875 18.914062 16.171875 19.082031 C 16.140625 19.097656 16.140625 19.097656 16.109375 19.117188 C 14.433594 20.066406 12.363281 20.277344 10.515625 19.773438 C 8.957031 19.335938 7.515625 18.410156 6.539062 17.109375 C 6.503906 17.066406 6.46875 17.019531 6.4375 16.976562 C 6.242188 16.722656 6.078125 16.453125 5.917969 16.171875 C 5.902344 16.144531 5.902344 16.144531 5.882812 16.113281 C 4.933594 14.4375 4.726562 12.371094 5.222656 10.515625 C 5.328125 10.144531 5.457031 9.789062 5.613281 9.4375 C 5.621094 9.417969 5.628906 9.398438 5.640625 9.375 C 5.847656 8.902344 6.113281 8.449219 6.429688 8.035156 C 6.441406 8.019531 6.453125 8.003906 6.464844 7.992188 C 6.597656 7.8125 6.738281 7.644531 6.886719 7.480469 C 6.933594 7.429688 6.980469 7.375 7.023438 7.324219 C 7.203125 7.117188 7.394531 6.933594 7.609375 6.765625 C 7.652344 6.730469 7.699219 6.691406 7.742188 6.652344 C 8.136719 6.308594 8.59375 6.027344 9.054688 5.789062 C 9.078125 5.78125 9.097656 5.769531 9.117188 5.757812 C 9.867188 5.378906 10.671875 5.136719 11.503906 5.027344 C 11.527344 5.023438 11.546875 5.019531 11.570312 5.015625 C 12.824219 4.84375 14.164062 5.027344 15.332031 5.511719 Z M 15.332031 5.511719 "/>
<path style=" stroke:none;fill-rule:nonzero;fill:rgb(99.215686%,99.215686%,99.215686%);fill-opacity:1;" d="M 15.835938 9.574219 C 15.90625 9.621094 15.941406 9.664062 15.96875 9.746094 C 15.976562 9.8125 15.980469 9.875 15.980469 9.941406 C 15.980469 9.960938 15.980469 9.980469 15.980469 10.003906 C 15.96875 10.488281 15.890625 10.984375 15.804688 11.460938 C 15.773438 11.621094 15.75 11.785156 15.730469 11.945312 C 15.695312 12.214844 15.652344 12.484375 15.609375 12.753906 C 15.597656 12.824219 15.589844 12.898438 15.578125 12.972656 C 15.554688 13.113281 15.53125 13.253906 15.511719 13.394531 C 15.503906 13.425781 15.503906 13.425781 15.5 13.457031 C 15.488281 13.519531 15.480469 13.582031 15.46875 13.644531 C 15.464844 13.671875 15.464844 13.671875 15.460938 13.699219 C 15.441406 13.820312 15.414062 13.9375 15.382812 14.054688 C 15.375 14.101562 15.363281 14.148438 15.355469 14.195312 C 15.351562 14.222656 15.347656 14.246094 15.34375 14.269531 C 15.339844 14.296875 15.335938 14.320312 15.328125 14.347656 C 15.324219 14.371094 15.320312 14.398438 15.316406 14.425781 C 15.296875 14.539062 15.277344 14.652344 15.265625 14.765625 C 15.253906 14.886719 15.226562 15 15.195312 15.117188 C 15.183594 15.183594 15.171875 15.246094 15.167969 15.316406 C 15.136719 15.625 15.050781 15.953125 14.820312 16.171875 C 14.652344 16.277344 14.480469 16.277344 14.289062 16.234375 C 13.988281 16.132812 13.738281 15.925781 13.484375 15.746094 C 13.363281 15.664062 13.242188 15.582031 13.121094 15.503906 C 12.929688 15.382812 12.742188 15.253906 12.554688 15.125 C 12.421875 15.035156 12.289062 14.941406 12.152344 14.851562 C 12.085938 14.8125 12.023438 14.769531 11.957031 14.726562 C 11.929688 14.703125 11.898438 14.683594 11.867188 14.664062 C 11.425781 14.375 11.425781 14.375 11.351562 14.15625 C 11.332031 14.054688 11.335938 14.003906 11.390625 13.910156 C 11.519531 13.730469 11.664062 13.582031 11.828125 13.4375 C 11.933594 13.347656 12.03125 13.25 12.128906 13.152344 C 12.214844 13.0625 12.304688 12.984375 12.394531 12.902344 C 12.484375 12.828125 12.566406 12.746094 12.652344 12.667969 C 12.691406 12.632812 12.726562 12.59375 12.765625 12.558594 C 12.785156 12.539062 12.804688 12.523438 12.824219 12.503906 C 12.878906 12.453125 12.933594 12.402344 12.988281 12.351562 C 13.203125 12.152344 13.410156 11.949219 13.621094 11.742188 C 13.636719 11.722656 13.636719 11.722656 13.65625 11.703125 C 13.691406 11.667969 13.726562 11.632812 13.761719 11.597656 C 13.78125 11.578125 13.804688 11.558594 13.824219 11.535156 C 13.921875 11.4375 13.921875 11.4375 13.960938 11.308594 C 13.960938 11.25 13.960938 11.25 13.929688 11.222656 C 13.765625 11.199219 13.660156 11.285156 13.53125 11.367188 C 13.507812 11.382812 13.484375 11.398438 13.460938 11.414062 C 13.226562 11.5625 12.996094 11.71875 12.765625 11.875 C 12.695312 11.921875 12.621094 11.972656 12.550781 12.019531 C 12.476562 12.070312 12.40625 12.117188 12.335938 12.167969 C 12.144531 12.292969 11.957031 12.421875 11.769531 12.546875 C 11.625 12.640625 11.480469 12.738281 11.339844 12.835938 C 11.242188 12.898438 11.144531 12.964844 11.050781 13.027344 C 11.003906 13.058594 10.953125 13.09375 10.90625 13.125 C 10.457031 13.429688 10.066406 13.675781 9.5 13.585938 C 9.21875 13.53125 8.949219 13.445312 8.675781 13.351562 C 8.578125 13.316406 8.480469 13.289062 8.378906 13.265625 C 8.160156 13.203125 7.953125 13.132812 7.832031 12.933594 C 7.8125 12.832031 7.824219 12.792969 7.875 12.707031 C 8.066406 12.5 8.367188 12.398438 8.621094 12.296875 C 8.714844 12.257812 8.804688 12.21875 8.898438 12.175781 C 9.199219 12.042969 9.199219 12.042969 9.355469 11.988281 C 9.480469 11.945312 9.59375 11.890625 9.707031 11.828125 C 9.8125 11.777344 9.914062 11.734375 10.019531 11.691406 C 10.183594 11.625 10.34375 11.550781 10.503906 11.480469 C 10.628906 11.425781 10.753906 11.371094 10.878906 11.328125 C 10.980469 11.292969 11.070312 11.253906 11.160156 11.203125 C 11.320312 11.125 11.484375 11.050781 11.648438 10.984375 C 11.679688 10.96875 11.707031 10.957031 11.738281 10.945312 C 11.816406 10.910156 11.894531 10.878906 11.972656 10.847656 C 12.050781 10.8125 12.128906 10.777344 12.207031 10.746094 C 12.265625 10.71875 12.328125 10.695312 12.386719 10.667969 C 12.429688 10.652344 12.429688 10.652344 12.472656 10.632812 C 12.617188 10.570312 12.761719 10.511719 12.90625 10.453125 C 12.972656 10.425781 13.042969 10.398438 13.109375 10.371094 C 13.136719 10.359375 13.160156 10.351562 13.1875 10.339844 C 13.238281 10.316406 13.289062 10.296875 13.339844 10.273438 C 13.484375 10.214844 13.628906 10.15625 13.777344 10.101562 C 13.917969 10.050781 14.054688 9.992188 14.191406 9.929688 C 14.324219 9.871094 14.457031 9.820312 14.59375 9.769531 C 14.625 9.757812 14.65625 9.746094 14.691406 9.730469 C 15.542969 9.402344 15.542969 9.402344 15.835938 9.574219 Z M 15.835938 9.574219 "/>
<path style=" stroke:none;fill-rule:nonzero;fill:rgb(85.882354%,85.882354%,85.882354%);fill-opacity:1;" d="M 12.246094 13.035156 C 12.261719 13.042969 12.277344 13.050781 12.296875 13.0625 C 12.019531 13.339844 11.742188 13.617188 11.453125 13.902344 C 11.453125 13.796875 11.511719 13.753906 11.582031 13.679688 C 11.59375 13.667969 11.605469 13.652344 11.621094 13.636719 C 11.703125 13.550781 11.789062 13.46875 11.882812 13.390625 C 12.007812 13.28125 12.125 13.15625 12.246094 13.035156 Z M 12.246094 13.035156 "/>
</g>
</svg>
