<?xml version="1.0" encoding="UTF-8" standalone="no"?>
<!DOCTYPE svg PUBLIC "-//W3C//DTD SVG 20010904//EN" "http://www.w3.org/TR/2001/REC-SVG-20010904/DTD/svg10.dtd">
<svg version="1.0" xmlns="http://www.w3.org/2000/svg" width="300.000000pt" height="300.000000pt" viewBox="0 0 300.000000 300.000000" preserveAspectRatio="xMidYMid meet">
<metadata>
Created by potrace 1.10, written by Peter Selinger 2001-2011
</metadata>
<g transform="translate(0.000000,300.000000) scale(0.100000,-0.100000)" fill="#60A5FA" stroke="none">
<path d="M1356 2905 c-7 -18 -29 -19 -57 -2 -17 10 -22 9 -34 -7 -11 -14 -21 -17 -49 -12 -25 5 -37 3 -43 -8 -10 -17 -32 -22 -57 -11 -14 6 -23 2 -36 -15 -14 -18 -23 -21 -48 -15 -24 5 -32 3 -32 -8 0 -17 -47 -40 -55 -27 -8 13 -35 1 -35 -15 0 -17 -31 -28 -54 -19 -10 4 -18 0 -23 -12 -10 -28 -35 -43 -60 -37 -18 4 -23 1 -23 -15 0 -20 -20 -34 -53 -36 -10 -1 -23 -12 -30 -26 -8 -16 -23 -26 -40 -28 -17 -2 -27 -9 -27 -19 0 -19 -28 -42 -52 -43 -11 0 -18 -8 -18 -19 0 -21 -17 -37 -45 -42 -11 -3 -22 -15 -25 -29 -3 -14 -17 -31 -32 -37 -16 -8 -28 -24 -31 -42 -4 -21 -13 -30 -29 -33 -15 -2 -23 -10 -24 -23 -2 -33 -14 -53 -36 -58 -14 -4 -19 -12 -16 -25 6 -22 -9 -45 -35 -55 -12 -5 -16 -13 -12 -26 8 -26 -3 -48 -27 -54 -16 -5 -19 -11 -14 -31 4 -18 1 -31 -13 -45 -12 -12 -19 -32 -19 -52 1 -20 -5 -35 -16 -41 -13 -7 -16 -17 -11 -38 5 -21 1 -33 -16 -49 -15 -14 -19 -25 -14 -38 11 -23 7 -44 -12 -65 -9 -11 -11 -18 -4 -23 16 -10 13 -46 -6 -67 -13 -14 -14 -21 -5 -30 15 -15 16 -58 2 -58 -5 0 -10 -9 -10 -20 0 -11 5 -20 10 -20 6 0 10 -11 10 -25 0 -14 -4 -25 -10 -25 -5 0 -10 -9 -10 -20 0 -11 5 -20 10 -20 14 0 13 -43 -2 -58 -9 -9 -8 -16 5 -30 19 -21 23 -57 7 -67 -6 -4 -1 -18 11 -34 18 -25 19 -31 8 -49 -12 -19 -11 -24 10 -43 17 -16 21 -28 16 -46 -4 -18 0 -31 14 -44 15 -15 19 -27 14 -49 -4 -23 -2 -30 10 -30 19 0 29 -25 21 -56 -5 -20 -2 -26 14 -31 24 -6 36 -32 26 -56 -4 -12 2 -20 20 -27 26 -9 30 -18 27 -53 -2 -10 8 -21 23 -27 14 -5 26 -15 27 -22 1 -7 2 -22 3 -33 0 -12 8 -20 18 -20 23 0 36 -15 40 -45 2 -17 10 -26 25 -28 16 -2 25 -13 31 -35 5 -20 16 -33 28 -36 27 -5 44 -21 44 -42 0 -13 7 -19 23 -19 27 0 47 -17 47 -41 0 -12 9 -19 27 -21 19 -2 32 -12 41 -31 9 -19 19 -26 29 -23 22 9 53 -12 53 -36 0 -16 5 -19 21 -15 30 8 49 -2 60 -30 7 -19 12 -22 27 -14 21 11 52 -3 52 -23 0 -18 25 -27 38 -14 13 13 52 -7 52 -27 0 -16 25 -20 34 -6 9 15 45 1 51 -20 7 -20 30 -25 40 -9 10 15 22 12 45 -12 18 -20 23 -21 42 -9 18 11 25 10 50 -9 22 -16 33 -19 41 -11 16 16 38 14 59 -6 14 -13 21 -14 30 -5 15 15 58 16 58 2 0 -5 9 -10 20 -10 11 0 20 5 20 10 0 14 36 12 61 -2 17 -11 22 -10 30 5 12 20 31 22 60 5 17 -11 22 -10 33 4 16 21 29 22 56 6 16 -11 23 -9 40 10 24 26 24 26 51 9 17 -10 22 -9 38 12 15 19 23 22 49 17 25 -6 33 -3 42 14 9 17 17 20 46 14 27 -5 34 -3 34 10 0 21 39 41 52 28 15 -15 38 -3 38 18 0 22 18 30 52 23 22 -4 27 -1 30 18 2 17 10 24 28 26 14 0 31 1 38 2 6 1 12 10 12 20 0 24 18 36 48 32 16 -2 22 3 22 17 0 24 25 46 44 39 16 -6 40 16 29 26 -11 11 19 37 43 37 19 0 24 5 24 24 0 26 23 51 38 42 14 -8 33 19 27 36 -7 17 19 43 33 34 13 -8 33 18 27 35 -7 19 6 36 30 41 15 2 20 11 20 33 0 23 7 33 28 43 20 10 26 19 22 31 -8 27 5 51 27 51 17 0 20 5 15 28 -6 32 0 46 27 55 13 5 17 13 12 31 -7 30 2 56 19 56 17 0 26 25 13 38 -13 13 0 52 18 52 8 0 14 9 14 20 0 11 -4 20 -9 20 -4 0 -6 11 -3 25 2 14 11 25 18 25 8 0 14 9 14 20 0 11 -5 20 -11 20 -15 0 0 42 20 57 13 9 14 14 4 24 -18 18 -16 50 4 64 17 13 17 14 0 32 -22 25 -22 42 1 59 14 11 15 16 4 31 -23 34 -24 44 -6 64 18 20 18 21 1 34 -20 14 -22 46 -4 64 10 10 9 15 -4 24 -20 15 -35 57 -20 57 16 0 13 37 -3 43 -15 6 -29 47 -15 47 5 0 9 9 9 20 0 11 -6 20 -14 20 -20 0 -30 38 -16 55 13 16 5 35 -15 35 -17 0 -26 26 -19 56 5 18 1 26 -12 31 -27 9 -33 23 -27 55 5 23 2 28 -15 28 -24 0 -34 22 -26 56 5 20 2 24 -14 24 -24 0 -35 14 -36 47 -1 15 -10 28 -26 36 -14 7 -25 21 -25 32 0 28 -13 45 -30 39 -14 -6 -39 29 -28 39 9 9 -18 38 -29 31 -15 -9 -38 16 -38 42 0 19 -5 24 -24 24 -24 0 -54 26 -43 37 11 10 -13 32 -29 26 -19 -7 -44 15 -44 38 0 13 -9 19 -32 21 -25 2 -34 8 -36 26 -3 20 -13 27 -36 23 -21 -4 -46 12 -46 30 0 15 -6 19 -28 17 -32 -2 -52 8 -52 27 0 15 -27 28 -41 19 -15 -9 -49 6 -49 23 0 12 -7 14 -30 9 -24 -4 -35 -1 -52 19 -16 19 -25 22 -39 15 -24 -13 -25 -13 -48 11 -14 15 -25 19 -38 14 -25 -11 -45 -6 -59 13 -11 15 -16 15 -34 4 -18 -11 -25 -11 -45 2 -28 18 -55 21 -55 5 0 -12 -43 -1 -48 12 -5 12 -42 11 -42 -1 0 -5 -11 -10 -25 -10 -14 0 -25 5 -25 10 0 6 -9 10 -20 10 -11 0 -20 -4 -20 -10 0 -5 -11 -10 -24 -10 -14 0 -28 5 -31 10 -9 15 -32 12 -39 -5z m389 -100 c483 -101 857 -430 1010 -888 47 -142 65 -255 65 -417 0 -254 -56 -467 -177 -670 -56 -95 -71 -115 -79 -107 -4 4 9 31 29 61 264 398 281 942 40 1361 -247 430 -708 685 -1198 661 -248 -12 -462 -81 -670 -217 -100 -65 -295 -259 -359 -356 -99 -152 -177 -343 -207 -513 -22 -123 -17 -365 10 -489 37 -170 101 -325 185 -450 39 -57 40 -61 27 -61 -12 0 -74 96 -119 186 -53 107 -87 204 -114 327 -30 142 -31 389 0 527 24 109 72 250 112 331 82 162 261 374 400 476 184 134 403 222 625 252 98 14 325 6 420 -14z m45 -90 c214 -56 391 -152 546 -298 52 -49 120 -124 152 -166 110 -145 200 -356 233 -541 18 -104 16 -335 -6 -435 -84 -400 -322 -709 -680 -885 -299 -147 -620 -169 -933 -65 -479 160 -809 578 -851 1075 -48 572 300 1104 840 1284 164 55 239 66 429 62 140 -3 181 -8 270 -31z m-1294 -2078 c-20 -20 -27 -23 -36 -12 -8 10 -6 15 9 20 10 3 22 13 25 22 5 11 10 13 17 6 7 -7 3 -18 -15 -36z m2033 7 c3 -3 -1 -9 -9 -14 -8 -5 -16 -14 -16 -20 -1 -5 -2 -13 -3 -17 -1 -9 -41 53 -41 63 0 7 61 -3 69 -12z m-1984 -44 c-23 -25 -12 -39 13 -17 24 22 37 9 15 -15 -20 -22 -51 -24 -60 -3 -6 16 22 55 40 55 6 0 2 -9 -8 -20z m1885 -10 c0 -5 7 -10 15 -10 8 0 15 -6 15 -14 0 -17 -28 -41 -37 -32 -4 4 -1 12 7 17 13 9 13 10 -1 6 -23 -7 -41 7 -33 26 7 18 34 24 34 7z m-1815 -57 c-5 -23 -4 -26 6 -15 15 14 29 16 29 4 0 -8 -43 -32 -55 -32 -8 0 -6 17 5 44 13 35 24 33 15 -1z m1765 -14 c13 -24 7 -49 -13 -49 -17 0 -53 38 -44 47 4 4 14 -2 21 -13 8 -10 18 -16 22 -11 4 4 2 13 -4 19 -14 14 -16 28 -2 28 5 0 14 -9 20 -21z m-1676 -35 c9 -3 16 -11 16 -16 0 -6 -7 -8 -14 -5 -10 4 -13 1 -9 -9 4 -10 0 -12 -13 -7 -17 6 -17 5 -5 -10 7 -9 9 -17 3 -17 -5 0 -15 7 -22 15 -10 13 -10 19 5 35 21 23 18 22 39 14z m1606 -34 c20 -15 21 -20 8 -20 -9 0 -21 -8 -27 -17 -12 -22 -17 -17 -26 25 -8 38 7 42 45 12z m-1540 -32 c0 -18 2 -20 10 -8 5 8 12 11 16 8 4 -4 -1 -20 -11 -34 -16 -25 -19 -26 -30 -11 -7 9 -15 14 -18 10 -12 -11 -7 17 5 37 17 26 28 25 28 -2z m1437 -10 c-12 -9 -14 -17 -7 -28 9 -13 11 -13 19 0 6 8 14 11 18 6 4 -4 -1 -14 -12 -22 -18 -13 -22 -13 -37 6 -21 26 -13 50 15 50 19 0 19 -1 4 -12z m-1357 -24 c0 -3 -5 -14 -11 -26 -16 -29 -2 -34 20 -7 11 13 20 19 21 13 0 -7 -8 -21 -17 -33 -16 -19 -20 -20 -36 -9 -16 12 -17 17 -6 41 11 24 29 37 29 21z m1249 -60 c6 -15 9 -29 5 -33 -4 -3 -9 -1 -11 6 -2 7 -10 10 -18 7 -8 -3 -11 -12 -8 -20 9 -25 -13 -15 -25 11 -16 35 -15 38 8 32 13 -3 20 0 20 9 0 23 16 16 29 -12z m-1159 0 c0 -13 3 -14 13 -5 22 18 27 1 10 -33 -14 -25 -18 -28 -21 -13 -3 13 -10 17 -23 14 -21 -6 -24 5 -9 34 13 23 30 25 30 3z m1062 -54 c4 -37 -38 -41 -52 -5 -12 32 -12 35 -1 35 5 0 12 -11 15 -25 10 -38 29 -31 21 8 -5 23 -4 29 4 22 6 -6 12 -22 13 -35z m-902 0 c0 -5 -4 -10 -9 -10 -5 0 -11 -11 -13 -25 -2 -18 -7 -22 -17 -16 -12 8 -12 12 -2 25 7 8 10 20 6 26 -3 6 3 10 14 10 12 0 21 -4 21 -10z m812 -30 c5 -32 -1 -37 -20 -18 -9 9 -12 8 -12 -6 0 -25 -17 -11 -22 19 -6 29 -2 35 28 35 17 0 23 -7 26 -30z m-742 -2 c0 7 5 12 11 12 7 0 9 -10 4 -27 -9 -38 -14 -41 -31 -19 -8 11 -14 14 -14 8 0 -7 -4 -12 -10 -12 -5 0 -7 7 -5 15 17 53 15 52 31 31 8 -11 14 -14 14 -8z m645 -23 c0 -37 -28 -46 -45 -15 -9 16 -8 25 1 36 20 24 44 13 44 -21z m-551 19 c23 -9 20 -26 -4 -19 -16 5 -20 2 -19 -17 0 -18 2 -20 7 -6 5 12 11 15 22 8 20 -12 0 -33 -26 -28 -23 4 -30 34 -14 53 14 17 13 17 34 9z m456 -13 c0 -5 -6 -12 -12 -14 -8 -3 -6 -6 5 -6 21 -1 23 -29 1 -38 -8 -3 -20 -1 -27 6 -8 8 -6 11 9 12 17 0 17 1 -3 9 -23 9 -29 21 -16 33 10 10 43 8 43 -2z m-352 -18 c-2 -10 -12 -21 -23 -25 -19 -6 -18 -6 3 -7 20 -1 33 -21 13 -21 -27 0 -41 15 -41 41 0 24 4 29 25 29 19 0 25 -5 23 -17z m268 -9 c8 -30 -6 -47 -32 -42 -35 6 -30 68 5 68 14 0 23 -9 27 -26z m-198 4 c9 -9 12 -9 12 0 0 7 5 12 10 12 6 0 10 -13 10 -30 0 -20 -5 -30 -15 -30 -8 0 -15 6 -16 13 0 10 -2 10 -6 0 -9 -24 -23 -13 -23 17 0 32 9 37 28 18z m97 -18 c0 -16 -5 -30 -11 -30 -6 0 -11 14 -12 30 0 17 5 30 11 30 7 0 12 -13 12 -30z"/>
<path d="M1350 2660 c0 -5 5 -10 11 -10 8 0 10 -15 7 -45 -5 -44 -5 -45 23 -45 16 0 29 5 29 10 0 6 -5 10 -11 10 -8 0 -10 15 -7 45 5 44 5 45 -23 45 -16 0 -29 -4 -29 -10z"/>
<path d="M1534 2656 c-3 -8 -4 -31 -2 -52 3 -35 6 -39 33 -42 19 -3 33 2 42 14 16 22 17 66 1 82 -16 16 -67 15 -74 -2z m56 -41 c0 -28 -4 -35 -20 -35 -15 0 -20 7 -20 28 0 32 7 42 27 42 8 0 13 -12 13 -35z"/>
<path d="M1173 2630 c-27 -11 -31 -32 -6 -28 13 2 20 -7 27 -34 5 -21 16 -38 23 -38 10 0 12 7 9 20 -3 11 -9 29 -12 41 -4 13 1 25 13 34 17 14 17 14 -7 14 -14 0 -35 -4 -47 -9z"/>
<path d="M1750 2638 c0 -2 -7 -24 -15 -50 -16 -55 -2 -75 18 -26 l14 33 8 -37 c4 -22 13 -38 21 -38 13 0 46 88 37 103 -9 16 -21 5 -28 -25 l-8 -33 -10 38 c-6 20 -16 37 -24 37 -7 0 -13 -1 -13 -2z"/>
<path d="M994 2555 c-8 -21 5 -105 17 -105 5 0 9 7 9 15 0 15 16 20 53 17 26 -3 21 10 -21 51 -42 41 -50 44 -58 22z m44 -43 c6 -18 -15 -14 -22 4 -4 10 -1 14 6 12 6 -2 14 -10 16 -16z"/>
<path d="M1947 2522 c-40 -40 -47 -58 -21 -48 23 9 54 -2 54 -20 0 -27 17 -14 24 17 10 51 7 89 -7 89 -7 0 -30 -17 -50 -38z m37 -17 c-4 -8 -10 -12 -15 -9 -11 6 -2 24 11 24 5 0 7 -7 4 -15z"/>
<path d="M835 2469 c-4 -5 1 -20 12 -31 20 -23 22 -23 -47 -2 -12 4 -20 2 -20 -5 0 -16 51 -91 61 -91 13 0 11 24 -3 38 -17 17 -3 25 22 12 12 -6 28 -9 36 -6 12 5 9 15 -17 51 -36 50 -35 49 -44 34z"/>
<path d="M1385 2473 c-382 -49 -686 -289 -815 -642 -17 -45 -30 -88 -30 -96 0 -13 23 -15 140 -15 164 0 142 17 221 -168 34 -81 55 -119 60 -110 4 7 40 101 80 208 40 107 77 201 82 208 7 9 77 12 288 12 274 0 278 0 303 -22 40 -35 43 -78 11 -116 l-27 -32 -223 0 c-166 0 -225 -3 -233 -12 -5 -7 -62 -155 -127 -328 -147 -395 -146 -393 -155 -383 -4 4 -58 130 -120 278 -62 149 -118 276 -123 283 -6 8 -41 12 -110 12 l-100 0 6 -102 c4 -57 16 -141 27 -188 22 -91 89 -240 141 -316 73 -107 259 -279 279 -258 4 5 84 205 176 444 92 239 172 441 177 448 7 9 65 12 231 12 l221 0 70 183 c38 100 79 192 92 205 43 43 124 14 137 -48 4 -17 -25 -103 -87 -265 l-92 -240 -222 -3 c-160 -2 -224 -6 -231 -15 -6 -6 -80 -192 -165 -412 -112 -289 -151 -402 -143 -407 7 -4 53 -19 102 -34 82 -26 102 -28 264 -28 163 0 181 2 264 27 91 28 217 83 248 108 15 13 14 21 -25 112 -37 87 -43 96 -54 80 -33 -46 -110 -114 -149 -133 -94 -46 -220 -33 -296 30 -21 17 -51 59 -69 95 -29 60 -31 70 -27 147 6 103 40 181 110 251 110 110 246 123 382 37 26 -17 49 -30 50 -28 2 2 76 195 165 430 174 457 169 438 117 487 l-25 24 -21 -49 c-29 -70 -34 -78 -64 -92 -53 -26 -116 12 -116 71 0 17 13 66 30 107 l29 75 -22 19 c-31 26 -119 69 -205 100 -124 44 -304 65 -427 49z m-305 -318 c11 -10 20 -28 20 -41 0 -25 -43 -64 -71 -64 -11 0 -19 -9 -21 -22 -2 -15 -10 -23 -23 -23 -18 0 -20 8 -23 74 -2 41 0 81 3 89 7 20 89 11 115 -13z m150 16 c0 -4 15 -12 32 -17 22 -7 36 -19 42 -37 15 -41 -3 -79 -42 -91 -17 -5 -32 -13 -32 -17 0 -5 -9 -9 -20 -9 -11 0 -20 4 -20 9 0 5 -14 14 -30 20 -56 19 -58 93 -4 121 16 8 31 18 32 23 5 10 42 9 42 -2z m157 -21 c9 -16 21 -30 25 -30 4 0 14 14 23 30 9 18 23 30 36 30 19 0 20 -6 17 -87 -3 -74 -6 -88 -20 -91 -15 -3 -18 4 -19 45 0 42 -2 45 -11 26 -13 -27 -36 -30 -54 -5 -12 15 -13 12 -14 -26 0 -36 -3 -43 -17 -40 -15 3 -19 16 -21 77 -2 41 -1 80 2 88 9 22 34 14 53 -17z m175 -37 c3 -62 5 -68 26 -71 21 -3 22 0 22 67 0 64 2 71 20 71 18 0 20 -7 20 -71 0 -67 1 -70 23 -67 20 3 22 9 25 71 3 59 5 67 23 67 18 0 20 -6 17 -87 l-3 -88 -107 -3 -108 -3 0 91 c0 83 2 90 20 90 17 0 19 -8 22 -67z"/>
<path d="M1010 2109 c0 -25 33 -22 38 4 2 12 -3 17 -17 17 -15 0 -21 -6 -21 -21z"/>
<path d="M1164 2105 c-8 -19 2 -45 16 -45 5 0 10 14 10 30 0 31 -16 41 -26 15z"/>
<path d="M1230 2090 c0 -21 4 -30 13 -27 6 2 12 14 12 27 0 13 -6 25 -12 28 -9 2 -13 -7 -13 -28z"/>
<path d="M2121 2428 c-17 -23 -31 -45 -31 -48 0 -3 14 -14 31 -24 35 -21 55 -11 22 11 -22 15 -22 16 -5 42 30 42 33 49 23 55 -5 3 -23 -13 -40 -36z"/>
<path d="M524 2105 c-8 -21 2 -45 19 -45 8 0 20 7 27 15 10 12 10 18 0 30 -7 8 -19 15 -27 15 -7 0 -16 -7 -19 -15z"/>
<path d="M2404 2106 c-10 -26 4 -48 28 -44 17 2 23 10 23 28 0 18 -6 26 -23 28 -13 2 -25 -3 -28 -12z"/>
<path d="M2201 1499 l-163 -430 57 -137 c32 -75 59 -139 61 -141 10 -11 100 91 155 173 69 104 114 214 141 346 37 175 13 407 -57 565 -13 30 -25 55 -27 55 -2 0 -77 -194 -167 -431z"/>
<path d="M380 1851 c-16 -30 -12 -49 12 -62 19 -10 25 -8 44 17 13 15 26 25 30 21 4 -3 1 -13 -6 -21 -19 -23 -8 -42 13 -22 21 22 22 62 1 70 -22 8 -20 9 -47 -20 -14 -15 -27 -22 -31 -16 -3 5 1 15 9 22 19 16 19 30 0 30 -8 0 -19 -9 -25 -19z"/>
<path d="M2536 1857 c-45 -14 -66 -44 -23 -34 19 5 26 3 30 -13 3 -13 -1 -21 -14 -25 -20 -7 -26 -25 -8 -25 31 0 99 24 96 34 -2 6 -12 10 -22 8 -16 -3 -34 12 -35 29 0 4 9 9 20 12 22 6 28 27 8 26 -7 0 -31 -6 -52 -12z"/>
<path d="M346 1669 c-16 -23 -8 -60 14 -67 9 -3 10 4 5 27 -6 29 -5 31 24 31 35 0 48 -15 30 -36 -14 -17 -6 -29 16 -21 9 4 15 19 15 37 0 24 -6 33 -26 40 -39 15 -61 12 -78 -11z"/>
<path d="M2534 1639 c3 -17 6 -38 6 -45 0 -8 5 -14 10 -14 6 0 10 9 10 20 0 15 7 20 29 20 37 0 61 9 61 22 0 7 -17 8 -45 5 -35 -5 -47 -3 -51 8 -11 28 -27 16 -20 -16z"/>
<path d="M2595 1491 c-27 -10 -50 -24 -50 -31 0 -7 22 -22 48 -33 49 -20 68 -18 49 6 -8 10 -7 20 3 41 23 43 24 43 -50 17z m15 -31 c0 -5 -7 -10 -16 -10 -8 0 -12 5 -9 10 3 6 10 10 16 10 5 0 9 -4 9 -10z"/>
<path d="M330 1485 c0 -8 9 -15 20 -15 13 0 20 -7 20 -20 0 -13 -7 -20 -20 -20 -11 0 -20 -4 -20 -10 0 -5 25 -10 55 -10 30 0 55 5 55 10 0 6 -9 10 -20 10 -13 0 -20 7 -20 19 0 11 9 23 20 26 38 12 20 25 -35 25 -42 0 -55 -3 -55 -15z"/>
<path d="M2530 1310 c0 -10 7 -20 15 -24 23 -8 18 -23 -10 -30 -42 -11 -29 -32 26 -44 29 -7 54 -10 56 -8 10 10 -9 26 -30 26 -21 1 -21 1 -3 15 16 12 17 17 5 31 -12 15 -11 16 20 9 25 -5 32 -4 29 6 -2 7 -28 18 -56 24 -47 11 -52 11 -52 -5z"/>
<path d="M390 1306 c-38 -12 -52 -45 -30 -72 31 -36 119 1 106 44 -11 32 -35 42 -76 28z m50 -35 c0 -23 -47 -38 -64 -21 -8 8 -6 15 8 26 28 20 56 18 56 -5z"/>
<path d="M1675 1163 c-62 -16 -125 -109 -125 -186 0 -78 53 -126 124 -113 43 8 127 82 163 143 l26 44 -30 37 c-47 57 -110 87 -158 75z"/>
<path d="M438 1124 c-21 -11 -28 -22 -28 -44 0 -39 24 -51 70 -35 40 13 52 51 25 79 -20 20 -32 20 -67 0z m58 -25 c8 -14 -5 -26 -38 -34 -24 -6 -28 -4 -28 13 0 29 51 45 66 21z"/>
<path d="M522 954 c-24 -14 -42 -29 -40 -32 2 -4 10 -19 17 -34 14 -28 31 -37 31 -17 0 6 -4 19 -10 29 -8 15 -4 22 25 39 19 11 35 25 35 31 0 15 -11 12 -58 -16z"/>
<path d="M2385 941 c-15 -31 -8 -45 18 -35 9 3 16 -3 20 -15 8 -33 55 -28 63 7 4 15 14 32 23 39 14 11 13 12 -6 13 -12 0 -25 5 -28 10 -4 6 -11 8 -16 4 -5 -3 -7 -10 -4 -15 4 -5 2 -9 -4 -9 -5 0 -17 -3 -26 -7 -14 -5 -16 -2 -10 15 10 33 -12 27 -30 -7z m85 -30 c0 -12 -20 -25 -27 -18 -7 7 6 27 18 27 5 0 9 -4 9 -9z"/>
<path d="M721 694 c-25 -32 -25 -33 -5 -62 21 -31 48 -28 79 9 23 28 24 34 12 53 -22 32 -61 32 -86 0z m64 -4 c8 -13 -21 -60 -36 -60 -19 0 -21 31 -4 50 20 22 31 25 40 10z"/>
<path d="M2174 699 c-14 -16 -16 -24 -7 -37 11 -18 24 -20 62 -7 17 5 22 4 19 -6 -3 -8 -14 -15 -26 -17 -12 -2 -22 -8 -22 -13 0 -16 46 -10 64 10 27 30 -2 71 -35 50 -19 -12 -39 -11 -39 2 0 6 9 13 20 16 11 3 20 9 20 14 0 17 -37 9 -56 -12z"/>
<path d="M876 580 c-14 -22 -26 -44 -26 -50 0 -16 18 -12 29 8 9 15 13 15 31 4 31 -19 40 -4 11 17 -17 13 -20 20 -11 26 6 4 17 2 23 -4 13 -13 37 -15 37 -3 0 7 -52 42 -63 42 -2 0 -16 -18 -31 -40z"/>
<path d="M2032 598 c-27 -27 4 -98 43 -98 22 0 55 23 55 39 0 20 -16 20 -32 -1 l-18 -23 -20 25 c-23 30 -21 44 8 48 12 2 22 8 22 13 0 13 -44 11 -58 -3z"/>
<path d="M1891 525 c-20 -10 -21 -14 -9 -21 22 -13 39 -50 31 -70 -5 -15 -2 -16 23 -10 34 9 44 17 26 23 -16 6 -45 61 -37 73 10 15 -9 19 -34 5z"/>
<path d="M1180 447 c-6 -23 -13 -48 -15 -54 -2 -7 2 -13 10 -13 8 0 15 5 15 10 0 6 13 10 30 10 32 0 54 27 44 54 -3 9 -7 16 -8 16 0 0 -16 4 -33 9 -32 9 -33 9 -43 -32z m56 2 c10 -17 -13 -36 -27 -22 -12 12 -4 33 11 33 5 0 12 -5 16 -11z"/>
<path d="M1733 474 c-7 -3 -13 -16 -13 -29 0 -20 7 -25 35 -31 19 -3 35 -11 35 -16 0 -6 -13 -8 -31 -4 -22 4 -29 2 -27 -7 7 -19 60 -21 74 -2 18 25 7 44 -32 51 -19 3 -34 11 -34 16 0 6 13 8 31 4 22 -4 29 -2 27 7 -5 13 -44 19 -65 11z"/>
<path d="M1360 426 c0 -13 -3 -38 -6 -55 -5 -24 -3 -31 10 -31 9 0 16 8 16 20 0 13 7 20 20 20 13 0 20 -7 20 -20 0 -24 15 -27 24 -4 10 25 7 94 -4 94 -5 0 -12 -11 -16 -24 -4 -17 -11 -22 -25 -19 -10 3 -19 14 -19 24 0 11 -4 19 -10 19 -5 0 -10 -11 -10 -24z"/>
<path d="M1540 443 c0 -5 9 -21 20 -38 11 -16 20 -38 20 -47 0 -10 7 -18 16 -18 11 0 13 6 9 20 -3 10 1 33 10 50 20 38 10 54 -13 22 -17 -22 -17 -22 -30 -2 -12 20 -32 27 -32 13z"/>
<path d="M1875 250 c-3 -5 -1 -10 4 -10 6 0 11 5 11 10 0 6 -2 10 -4 10 -3 0 -8 -4 -11 -10z"/>
<path d="M1780 215 c0 -8 5 -15 10 -15 6 0 10 7 10 15 0 8 -4 15 -10 15 -5 0 -10 -7 -10 -15z"/>
<path d="M1600 185 c0 -8 5 -15 10 -15 6 0 10 7 10 15 0 8 -4 15 -10 15 -5 0 -10 -7 -10 -15z"/>
</g>
</svg>